<?xml version="1.0" encoding="UTF-8" standalone="no"?>
<!-- Created with Inkscape (http://www.inkscape.org/) -->

<svg
   width="161.22964mm"
   height="197.03409mm"
   viewBox="0 0 161.22964 197.03409"
   version="1.1"
   id="svg1"
   xml:space="preserve"
   inkscape:version="1.3.2 (091e20e, 2023-11-25, custom)"
   sodipodi:docname="format parquet.svg"
   xmlns:inkscape="http://www.inkscape.org/namespaces/inkscape"
   xmlns:sodipodi="http://sodipodi.sourceforge.net/DTD/sodipodi-0.dtd"
   xmlns="http://www.w3.org/2000/svg"
   xmlns:svg="http://www.w3.org/2000/svg"><sodipodi:namedview
     id="namedview1"
     pagecolor="#ffffff"
     bordercolor="#000000"
     borderopacity="0.25"
     inkscape:showpageshadow="2"
     inkscape:pageopacity="0.0"
     inkscape:pagecheckerboard="0"
     inkscape:deskcolor="#d1d1d1"
     inkscape:document-units="mm"
     inkscape:zoom="0.69219276"
     inkscape:cx="361.17107"
     inkscape:cy="427.62655"
     inkscape:window-width="1680"
     inkscape:window-height="1020"
     inkscape:window-x="133"
     inkscape:window-y="5"
     inkscape:window-maximized="0"
     inkscape:current-layer="layer1" /><defs
     id="defs1" /><g
     inkscape:label="Calque 1"
     inkscape:groupmode="layer"
     id="layer1"
     transform="translate(1.8922945,-35.243658)"><path
       style="fill:#000000"
       d="m 21.621731,231.97934 c -3.806133,-1.06601 -6.928323,-3.88367 -8.389596,-7.57129 -0.413933,-1.04459 -0.482819,-2.52454 -0.602928,-12.95329 L 12.493605,199.6808 8.5248546,199.53964 c -3.801537,-0.13522 -4.036601,-0.17627 -5.579175,-0.97418 -1.890087,-0.97767 -2.93056001,-2.07961 -3.978193,-4.21321 l -0.761382,-1.55061 -0.07416,-15.83728 c -0.06403,-13.67324 -0.01758,-16.05815 0.339945,-17.4537 0.73025899,-2.85048 2.52750599,-5.00964 5.158175,-6.19688 0.666954,-0.301 2.065478,-0.45106 4.998651,-0.53636 l 4.0726094,-0.11844 -0.196256,-53.258676 c -0.21759,-59.048092 -0.334712,-54.483743 1.480602,-57.700302 1.617374,-2.865829 5.425652,-5.58731 8.664362,-6.19175 0.92109,-0.171903 17.95333,-0.265488 48.15416,-0.264588 43.993617,0.0013 46.771687,0.02841 47.458337,0.463021 0.40114,0.253895 9.80708,9.619238 20.90208,20.811873 l 20.17274,20.350245 v 72.915377 72.91537 l -0.61364,1.51951 c -1.30783,3.23852 -4.16134,6.08415 -7.42462,7.40411 l -1.48674,0.60138 -63.499997,0.0441 c -50.38039,0.035 -63.74599,-0.0248 -64.69062,-0.28934 z m 127.888289,-4.80995 c 0.70799,-0.24123 1.85506,-0.98054 2.65333,-1.7101 2.53001,-2.31229 2.289,5.76728 2.21355,-74.20736 l -0.0666,-70.633619 -14.41979,-0.132313 c -15.87608,-0.145676 -15.24793,-0.0815 -18.4285,-1.882816 -1.64684,-0.93269 -4.19256,-3.599773 -5.17685,-5.423637 -1.49739,-2.774624 -1.53006,-3.173557 -1.53006,-18.681199 V 40.263517 l -46.235939,0.06906 -46.23593,0.06907 -1.05834,0.572127 c -1.43902,0.777928 -2.630334,2.076077 -3.359881,3.661206 l -0.608866,1.322917 -0.08167,50.667705 c -0.04492,27.867238 -0.0037,51.888098 0.09161,53.379688 l 0.173273,2.71197 h 6.589123 6.58912 v -22.82758 c 0,-20.23253 0.0468,-22.89443 0.41188,-23.41562 l 0.41188,-0.58804 h 21.14135 21.14136 l 0.53947,0.57905 c 0.52875,0.56755 0.53948,0.85605 0.53948,14.51188 v 13.93282 l 2.81928,0.17249 c 1.55061,0.0949 3.39607,0.1725 4.10104,0.1725 h 1.28176 v -5.78515 c 0,-5.45205 0.0316,-5.82529 0.54837,-6.48229 l 0.54837,-0.69714 h 5.00788 5.00788 v -7.7642 c 0,-7.22362 0.0341,-7.7951 0.4904,-8.20801 0.45071,-0.40788 2.25837,-0.44348 22.33079,-0.43975 12.01221,0.002 22.04003,0.0807 22.28403,0.17431 0.244,0.0936 0.55359,0.45941 0.68796,0.81284 0.13895,0.36548 0.24432,7.12353 0.24432,15.67094 0,14.80314 -0.008,15.03879 -0.54837,15.72548 l -0.54838,0.69714 H 128.8911 118.72385 v 2.64583 2.64584 l 10.12031,0.004 c 5.56617,0.002 10.25131,0.0915 10.41143,0.19844 0.71963,0.4805 0.89951,1.48568 0.89951,5.02655 v 3.67633 l 1.34037,0.6278 c 1.63424,0.76544 2.98801,2.21528 3.91553,4.19341 l 0.69722,1.48696 v 16.53645 c 0,16.46579 -0.002,16.54183 -0.58052,17.79343 -0.74483,1.61272 -2.9556,3.95119 -4.31493,4.56416 l -1.05767,0.47695 v 6.9833 6.9833 l -0.64944,0.64943 -0.64943,0.64943 H 117.13635 95.41646 l -0.64943,-0.64943 -0.64943,-0.64943 v -6.62661 -6.62661 h -9.65729 -9.65729 v 6.62661 6.62661 l -0.64944,0.64943 -0.64943,0.64943 H 52.71031 31.91646 l -0.64943,-0.64943 -0.64943,-0.64943 v -6.62661 -6.62661 h -6.44989 c -5.238815,0 -6.50825,0.0703 -6.760667,0.37445 -0.229733,0.27681 -0.289925,3.19174 -0.230834,11.17865 0.07704,10.41243 0.100584,10.84886 0.649406,12.03618 0.761695,1.64784 2.474465,3.25949 4.147755,3.90289 1.35123,0.51957 2.14231,0.52626 63.82887,0.53987 56.68333,0.0125 62.57603,-0.0255 63.70782,-0.41116 z M 31.646271,95.699655 c -1.4301,-0.777248 -1.58957,-2.688228 -0.32357,-3.877609 l 0.66037,-0.620403 42.90735,-0.06959 c 31.955319,-0.05183 43.096249,0.0083 43.647429,0.235705 1.61155,0.664802 1.92367,3.097542 0.53731,4.188049 -0.68589,0.539519 -0.77582,0.54061 -43.712549,0.530038 -36.64589,-0.009 -43.12772,-0.06628 -43.71634,-0.386186 z m 0.0587,-15.582864 c -0.70337,-0.389849 -1.32833,-1.36327 -1.34267,-2.091307 -0.0162,-0.82226 0.72945,-1.950455 1.4995,-2.268831 0.54777,-0.226473 7.91355,-0.287722 28.34585,-0.235705 l 27.60576,0.07028 0.63851,0.742359 c 0.91315,1.061678 0.86038,2.383764 -0.13489,3.379035 l -0.7734,0.773398 -27.60316,-0.0094 c -22.40384,-0.0076 -27.72227,-0.07539 -28.2355,-0.359852 z m -0.5723,-15.917561 c -0.93143,-0.991452 -0.88425,-2.605341 0.10092,-3.452749 l 0.73635,-0.633378 h 34.58679 c 38.237549,0 35.415799,-0.133512 36.022369,1.704412 0.24358,0.738049 0.22199,1.059882 -0.11478,1.711127 -0.22814,0.441159 -0.64386,0.9247 -0.92382,1.074534 -0.34169,0.182867 -11.894189,0.272427 -35.140729,0.272427 h -34.63168 z m 39.70151,140.64095 v -5.29167 h -17.99167 -17.99167 v 5.29167 5.29166 h 17.99167 17.99167 z m -32.5437,-0.26459 v -1.5875 h 3.83646 3.83645 v 1.5875 1.5875 h -3.83645 -3.83646 z m 11.1125,-0.0662 v -1.65364 h 8.99583 8.99583 v 1.65364 1.65365 h -8.99583 -8.99583 z m 86.518739,0.35053 v -5.31146 H 117.00401 98.086311 l 4e-5,5.22552 5e-5,5.22552 18.917659,0.0859 18.91766,0.0859 z m -34.39583,-0.28438 v -1.5875 h 3.96875 c 2.18281,0 4.05805,-0.0298 4.16719,-0.0661 0.10914,-0.0364 0.23388,0.678 0.27721,1.5875 l 0.0788,1.65365 h -4.24596 -4.24596 z m 11.79246,-0.007 0.0185,-1.59433 h 9.46914 9.46915 l 0.0374,1.59463 0.0374,1.59462 -9.525,-2.9e-4 -9.525,-2.9e-4 z m 24.90194,-10.08592 c 1.19256,-0.3618 2.13014,-1.16949 2.7359,-2.35687 0.5014,-0.98284 0.52155,-1.60957 0.51597,-16.04842 -0.007,-17.0864 0.0593,-16.5313 -2.13691,-17.98471 l -1.12593,-0.74511 H 72.176461 6.1436046 l -0.978851,0.60865 c -0.538368,0.33476 -1.252743,1.04914 -1.5875,1.5875 l -0.608649,0.97885 -0.08044,14.81667 c -0.04424,8.14917 -0.0073,15.32212 0.08217,15.93989 0.199545,1.37833 1.199879,2.62273 2.633161,3.2756 1.032156,0.47016 3.338217,0.48181 66.4213594,0.33545 40.866885,-0.0948 65.668055,-0.2475 66.195435,-0.4075 z m -60.627659,-6.44163 c -1.38487,-1.57738 -1.55532,-1.6914 -2.08283,-1.39323 -0.34587,0.19549 -1.53802,0.31761 -2.99537,0.30681 -2.07267,-0.0154 -2.63133,-0.12091 -3.8845,-0.73403 -3.58984,-1.75635 -5.30152,-6.03056 -4.66353,-11.64525 0.65362,-5.75232 3.31175,-8.58406 8.29439,-8.83616 3.76094,-0.19028 6.36943,1.23996 7.82541,4.2907 1.71991,3.60374 1.68553,8.62806 -0.0828,12.10345 -0.4945,0.97186 -0.80181,1.86483 -0.6829,1.98438 0.29993,0.30153 2.89038,4.67685 2.89062,4.8823 2e-4,0.17757 -2.09149,0.75901 -2.7305,0.75901 -0.20883,0 -1.05842,-0.77309 -1.88799,-1.71798 z m -3.31882,-5.09887 c 0,-0.11124 -0.59739,-0.94057 -1.32754,-1.84295 l -1.32754,-1.64069 0.59993,-0.37713 c 0.32997,-0.20742 0.95713,-0.55858 1.39369,-0.78036 l 0.79375,-0.40323 0.82082,1.32626 0.82082,1.32625 0.47438,-1.15034 c 0.33764,-0.81876 0.47399,-1.84465 0.47303,-3.5591 -0.001,-2.02405 -0.11007,-2.64625 -0.68207,-3.89566 -0.91548,-1.99968 -1.90498,-2.62238 -3.95777,-2.49066 -2.91811,0.18725 -4.03463,2.14727 -4.03463,7.08272 0,2.74358 0.0675,3.18235 0.67143,4.36563 0.81789,1.60244 1.9262,2.24054 3.89264,2.24112 0.76398,2.2e-4 1.38906,-0.0906 1.38906,-0.20186 z m -61.647915,-6.41231 v -10.31875 h 4.513046 c 5.440289,0 6.546009,0.23226 8.067889,1.69467 1.99189,1.91405 2.52189,5.51397 1.23883,8.41454 -1.07593,2.43232 -2.82882,3.36829 -6.70853,3.58207 l -2.613318,0.144 v 3.40111 3.40111 h -2.248959 -2.248958 z m 9.389785,-1.1092 c 1.17895,-1.37062 1.09859,-3.99722 -0.15708,-5.13358 -0.42679,-0.38624 -0.98115,-0.4878 -2.70201,-0.49501 l -2.16507,-0.009 -0.07314,3.26858 -0.07314,3.26858 2.278861,-0.0936 c 2.08937,-0.0858 2.32982,-0.15282 2.89158,-0.8059 z m 4.22332,11.10746 c 0.0608,-0.18753 0.84483,-2.66269 1.74222,-5.50034 0.89739,-2.83766 2.21071,-6.91716 2.91849,-9.06556 0.70778,-2.14839 1.4064,-4.35105 1.55249,-4.89479 l 0.26561,-0.98861 2.72306,0.0819 2.72306,0.0819 3.01116,9.1785 c 1.65613,5.04817 3.16719,9.68451 3.35791,10.30298 l 0.34675,1.12447 h -2.22837 -2.22838 l -0.7608,-2.44739 -0.76081,-2.4474 h -3.40375 -3.40376 l -0.68189,2.38125 -0.6819,2.38125 -2.30084,0.0764 c -1.78405,0.0592 -2.27601,-2e-4 -2.19025,-0.26458 z m 11.59307,-8.30513 c 0.12914,-0.12914 -0.52035,-2.14547 -2.07945,-6.45563 -0.12761,-0.35278 -0.16815,-0.35278 -0.36488,0 -0.35545,0.63743 -2.12435,5.83609 -2.12435,6.24332 0,0.28893 0.48896,0.37127 2.20487,0.37127 1.21267,0 2.27639,-0.0715 2.36381,-0.15896 z m 9.19567,-1.86308 -0.0167,-10.48871 4.834,0.13857 c 3.73444,0.10705 5.09114,0.24307 5.96451,0.59798 1.29551,0.52645 2.81388,2.16349 3.25976,3.51453 0.39866,1.20796 0.18113,4.45576 -0.36949,5.5164 -0.52853,1.01812 -1.75678,2.20393 -2.6809,2.58826 l -0.69079,0.2873 2.52811,3.94143 c 1.39045,2.16779 2.59088,4.04302 2.66762,4.16719 0.0767,0.12416 -1.0362,0.22575 -2.4732,0.22575 h -2.61273 l -0.6167,-1.12448 c -0.33918,-0.61846 -1.38074,-2.4044 -2.31456,-3.96875 -1.5429,-2.58467 -1.76878,-2.84427 -2.47473,-2.84427 h -0.77687 v 3.96875 3.96875 h -2.10531 -2.10531 z m 8.72822,-1.2868 c 1.10301,-0.57039 1.5556,-2.16596 1.03858,-3.66148 -0.49668,-1.43667 -1.6247,-2.02454 -3.88583,-2.02511 l -1.65365,-4.1e-4 v 3.04271 3.04271 h 1.86522 c 1.1437,0 2.16326,-0.15412 2.63568,-0.39842 z m 33.2723,11.36822 c -1.71325,-0.54725 -3.17134,-2.01789 -3.86885,-3.90212 -0.53027,-1.43246 -0.56685,-2.01728 -0.56685,-9.06198 v -7.5307 h 2.11666 2.11667 v 7.0061 c 0,8.14995 0.14071,8.86698 1.89415,9.65202 1.32843,0.59476 3.18223,0.34618 4.0748,-0.54638 0.70319,-0.7032 1.21829,-2.80147 1.16227,-4.73466 -0.019,-0.65484 -0.0239,-3.48258 -0.011,-6.28385 l 0.0235,-5.09323 h 2.05993 2.059919 l -0.0871,7.60677 c -0.093,8.11901 -0.222579,9.03726 -1.522709,10.78855 -0.32687,0.44029 -1.2337,1.14962 -2.01518,1.57629 -1.22541,0.66904 -1.74847,0.78592 -3.80213,0.84957 -1.58379,0.0491 -2.80082,-0.0602 -3.63409,-0.32638 z m 14.879059,-10.10991 -1.8e-4,-10.38489 h 6.1776 6.17761 l 0.0539,1.84529 0.0539,1.8453 -4.13127,0.0729 -4.13128,0.0729 -0.0497,2.31536 -0.0497,2.31535 3.77031,-2.5e-4 3.77032,-2.5e-4 v 1.98437 1.98438 h -3.80933 -3.80932 l 0.039,2.3151 0.039,2.31511 4.29948,0.0727 4.29948,0.0727 1.3e-4,1.77938 1.2e-4,1.77938 h -6.34994 -6.34995 z m 19.94024,10.12289 c -0.0689,-0.17957 -0.0891,-4.03394 -0.0448,-8.56525 l 0.0805,-8.23875 -2.71198,1.9e-4 -2.71198,2e-4 v -1.85209 -1.85208 h 7.66707 7.66706 l -0.0535,1.85208 -0.0535,1.85209 h -2.8474 -2.8474 l -0.0698,8.51243 -0.0698,8.51243 -1.93954,0.0526 c -1.33561,0.0362 -1.97855,-0.049 -2.06483,-0.27387 z M 83.005061,145.57351 v -7.14375 h -4.09665 -4.09665 l 5e-4,7.14375 5e-4,7.14375 h 4.09615 4.09615 z m 11.1125,3.4689 c 0,-3.22896 0.0616,-3.75065 0.50746,-4.29948 l 0.50746,-0.62462 10.350419,0.0976 10.35041,0.0976 -0.0761,-2.61116 -0.0761,-2.61115 -10.27621,-0.13229 -10.276209,-0.13229 -0.50556,-0.62463 c -0.46478,-0.57423 -0.50556,-1.11319 -0.50556,-6.68073 v -6.0561 h -3.83646 -3.83646 v 13.62604 13.62604 h 3.83646 3.83646 z m 7.540619,2.54141 c 0.65492,-1.37905 2.38053,-2.22467 3.94199,-1.93174 1.14652,0.21509 2.68259,1.48356 2.91425,2.40658 l 0.1653,0.6586 h 13.63093 13.63093 l -0.0761,-2.44739 -0.0761,-2.4474 -18.49154,-0.068 c -13.43987,-0.0494 -18.589899,0.0137 -18.851559,0.23084 -0.25121,0.20848 -0.36002,0.9687 -0.36002,2.51535 v 2.21656 l 1.52135,-0.01 1.521359,-0.01 z M 70.834231,136.57768 v -12.7 h -13.09688 -13.09687 v -1.32291 -1.32292 h 13.09687 13.09688 v -5.55625 -5.55625 h -17.97784 -17.97784 l -0.08,1.38906 c -0.044,0.76399 -0.0445,3.2643 -0.001,5.55625 l 0.0788,4.16719 h 1.57487 1.57486 v 1.32292 1.32291 h -1.5875 -1.5875 l -0.006,3.90261 c -0.003,2.14643 -0.0136,7.77213 -0.0227,12.50156 -0.009,4.72942 -0.006,8.68825 0.006,8.79739 0.0125,0.10914 8.11896,0.19844 18.01438,0.19844 h 17.99167 z m -32.80834,7.54063 v -1.7198 h 3.96875 3.96875 v 1.7198 1.71979 h -3.96875 -3.96875 z m 11.37709,0 v -1.7198 h 8.99583 8.99583 v 1.7198 1.71979 h -8.99583 -8.99583 z m -11.37709,-7.14375 v -1.7198 h 3.96875 3.96875 v 1.7198 1.71979 h -3.96875 -3.96875 z m 11.37709,0 v -1.7198 h 8.99583 8.99583 v 1.7198 1.71979 h -8.99583 -8.99583 z m -11.37709,-6.74688 v -1.5875 h 3.96875 3.96875 v 1.5875 1.5875 h -3.96875 -3.96875 z m 11.37709,0 v -1.5875 h 8.99583 8.99583 v 1.5875 1.5875 h -8.99583 -8.99583 z m -9.26042,-4.23333 c -0.46435,-0.46435 -0.52917,-0.88195 -0.52917,-3.40915 0,-2.80485 -0.0178,-2.89167 -0.68355,-3.32787 -0.84426,-0.55318 -1.43311,-1.90434 -1.43311,-3.28835 0,-1.70734 1.90119,-3.46838 3.74442,-3.46838 1.13435,0 2.75026,1.01837 3.37241,2.12535 0.84674,1.50656 0.58119,2.93888 -0.80115,4.32122 l -1.02402,1.02402 v 2.83828 c 0,2.41366 -0.0724,2.90379 -0.48385,3.27616 -0.65059,0.58878 -1.51857,0.55213 -2.16198,-0.0913 z m 1.87049,-9.1503 c 0.47002,-0.56634 -0.003,-1.30074 -0.83737,-1.30074 -0.64781,0 -0.94876,0.60393 -0.66693,1.33837 0.1948,0.50764 1.06993,0.48575 1.5043,-0.0376 z m 91.990439,18.19977 1.91823,-0.0536 v -5.55625 -5.55625 h -13.75833 -13.75833 v -1.32291 -1.32292 h 13.75833 13.75833 v -5.55625 -5.55625 H 117.00401 98.086311 v 5.55625 5.55625 h 1.85208 1.852079 v 1.32292 1.32291 h -1.852079 -1.85208 v 5.37104 c 0,3.04463 0.10901,5.47992 0.25168,5.6224 0.21463,0.21435 29.163199,0.35452 35.665499,0.1727 z m -32.21302,-4.81614 v -1.5875 h 4.10105 4.10104 v 1.5875 1.5875 h -4.10104 -4.10105 z m 11.64167,0 v -1.5875 h 9.39271 9.39271 v 1.5875 1.5875 h -9.39271 -9.39271 z m -9.37341,-4.11954 c -0.62143,-0.62143 -0.75048,-1.46113 -0.61442,-3.99801 0.12197,-2.27441 0.11525,-2.3052 -0.6425,-2.9428 -1.61381,-1.35793 -1.9855,-3.2811 -0.93576,-4.84166 0.68852,-1.02357 2.06352,-1.79369 3.23584,-1.81236 1.80355,-0.0287 3.81751,1.96405 3.82798,3.78773 0.006,0.98091 -0.947,2.66747 -1.74918,3.09679 -0.60125,0.32178 -0.62772,0.45676 -0.62772,3.20165 0,2.51292 -0.0651,2.93084 -0.52916,3.39487 -0.63546,0.63546 -1.39919,0.67968 -1.96508,0.11379 z m 1.91561,-9.69571 c 0.0668,-0.57907 -0.0457,-0.75064 -0.58027,-0.8848 -0.84919,-0.21313 -1.22235,0.0253 -1.22235,0.78095 0,0.79236 0.23621,0.99524 1.04844,0.90052 0.50916,-0.0594 0.69137,-0.25185 0.75418,-0.79667 z m 29.54968,-56.829399 -15.87417,-15.875904 -0.0687,12.287141 c -0.0663,11.855456 -0.0496,12.33841 0.47724,13.74644 1.0207,2.72808 3.54085,4.876472 6.37324,5.433111 0.63567,0.124926 6.51321,0.240183 13.06119,0.256128 l 11.90542,0.02899 z"
       id="path38" /></g></svg>
