<?xml version="1.0" encoding="UTF-8"?>
<!-- Created with Inkscape (http://www.inkscape.org/) -->
<svg width="261.61mm" height="128.82mm" version="1.1" viewBox="0 0 261.61 128.82" xml:space="preserve" xmlns="http://www.w3.org/2000/svg" xmlns:xlink="http://www.w3.org/1999/xlink"><defs><marker id="marker126054" overflow="visible" markerHeight="6.155385" markerWidth="5.3244081" orient="auto-start-reverse" preserveAspectRatio="xMidYMid" viewBox="0 0 5.3244081 6.1553851"><path transform="scale(.5)" d="m5.77 0-8.65 5v-10z" fill="context-stroke" fill-rule="evenodd" stroke="context-stroke" stroke-width="1pt"/></marker><marker id="marker125583" overflow="visible" markerHeight="6.155385" markerWidth="5.3244081" orient="auto-start-reverse" preserveAspectRatio="xMidYMid" viewBox="0 0 5.3244081 6.1553851"><path transform="scale(.5)" d="m5.77 0-8.65 5v-10z" fill="context-stroke" fill-rule="evenodd" stroke="context-stroke" stroke-width="1pt"/></marker><style>.cls-1{fill:url(#linear-gradient);}.cls-14,.cls-15,.cls-2,.cls-9{fill:none;}.cls-3{fill:url(#linear-gradient-2);}.cls-4{fill:#fff;}.cls-5{fill:url(#linear-gradient-3);}.cls-6{fill:url(#linear-gradient-4);}.cls-7{fill:url(#linear-gradient-5);}.cls-8{fill:url(#linear-gradient-6);}.cls-14,.cls-15,.cls-9{stroke-linecap:square;stroke-width:7.28px;}.cls-10,.cls-14,.cls-15,.cls-9{stroke-miterlimit:10;}.cls-9{stroke:url(#linear-gradient-7);}.cls-10,.cls-11{fill:#95bb3d;}.cls-10{stroke:#1a1b31;stroke-width:10.72px;}.cls-12{fill:url(#linear-gradient-9);}.cls-13{fill:url(#linear-gradient-10);}.cls-14{stroke:url(#linear-gradient-13);}.cls-15{stroke:url(#linear-gradient-14);}.cls-16{opacity:0.6;fill:url(#linear-gradient-15);}.cls-17{fill:url(#linear-gradient-16);}.cls-18{fill:url(#linear-gradient-17);}.cls-19{fill:#e5eca7;}.cls-20{fill:#f9fbeb;}</style><linearGradient id="linear-gradient" x2="296.55" y1="148.28" y2="148.28" gradientUnits="userSpaceOnUse"><stop stop-color="#586382" offset="0"/><stop stop-color="#363954" offset=".48"/></linearGradient><linearGradient id="linear-gradient-2" x1="50.25" x2="346.8" y1="106.1" y2="106.1" gradientTransform="rotate(-.81 2231.8 3694.9)" xlink:href="#linear-gradient"/><linearGradient id="linear-gradient-3" x1="792.46" x2="792.47" y1="1966.3" y2="1966.3" gradientTransform="matrix(46.99 -12.76 -11.33 -42.13 -14810 93089)" gradientUnits="userSpaceOnUse"><stop stop-color="#4f672f" offset="0"/><stop stop-color="#4f672f" offset=".21"/><stop stop-color="#526b30" offset=".39"/><stop stop-color="#5c7632" offset=".56"/><stop stop-color="#6c8a35" offset=".73"/><stop stop-color="#82a539" offset=".89"/><stop stop-color="#95bb3d" offset="1"/></linearGradient><linearGradient id="linear-gradient-4" x1="792.34" x2="792.34" y1="1966.5" y2="1966.5" xlink:href="#linear-gradient-3"/><linearGradient id="linear-gradient-5" x1="792.47" x2="792.47" y1="1966.5" y2="1966.5" xlink:href="#linear-gradient-3"/><linearGradient id="linear-gradient-6" x1="173.33" x2="309.12" y1="168.83" y2="168.83" gradientTransform="rotate(-.08 112.44 3086.9)" xlink:href="#linear-gradient-3"/><linearGradient id="linear-gradient-7" x1="139.52" x2="289.37" y1="200.22" y2="113.97" gradientTransform="rotate(-.08 112.44 3086.9)" gradientUnits="userSpaceOnUse"><stop stop-color="#95bb3d" offset="0"/><stop stop-color="#759537" stop-opacity=".86" offset=".21"/><stop stop-color="#5a7431" stop-opacity=".75" offset=".42"/><stop stop-color="#4f672f" stop-opacity=".7" offset=".52"/><stop stop-color="#516a2f" stop-opacity=".71" offset=".61"/><stop stop-color="#587231" stop-opacity=".74" offset=".7"/><stop stop-color="#648033" stop-opacity=".79" offset=".79"/><stop stop-color="#759437" stop-opacity=".86" offset=".88"/><stop stop-color="#8aad3b" stop-opacity=".95" offset=".96"/><stop stop-color="#95bb3d" offset="1"/></linearGradient><linearGradient id="linear-gradient-9" x1="50.25" x2="346.8" y1="31.81" y2="31.81" gradientTransform="rotate(-.81 2231.8 3694.9)" xlink:href="#linear-gradient"/><linearGradient id="linear-gradient-10" x1="50.25" x2="346.8" y1="50.89" y2="50.89" gradientTransform="rotate(-.81 2231.8 3694.9)" xlink:href="#linear-gradient"/><linearGradient id="linear-gradient-13" x1="135.49" x2="309.55" y1="95.41" y2="95.41" gradientTransform="rotate(-.08 112.44 3086.9)" gradientUnits="userSpaceOnUse"><stop stop-color="#95bb3d" offset="0"/><stop stop-color="#95bb3d" offset="1"/></linearGradient><linearGradient id="linear-gradient-14" x1="139.59" x2="289.44" y1="141.3" y2="55.05" xlink:href="#linear-gradient-7"/><linearGradient id="linear-gradient-15" x1="168.23" x2="194.77" y1="94.36" y2="94.36" gradientUnits="userSpaceOnUse"><stop stop-color="#4f672f" offset="0"/><stop stop-color="#95bb3d" offset="1"/></linearGradient><linearGradient id="linear-gradient-16" x1="68.34" x2="400.33" y1="155" y2="155" gradientTransform="rotate(-.08 112.44 3086.9)" xlink:href="#linear-gradient-3"/><linearGradient id="linear-gradient-17" x1="232.23" x2="242.86" y1="147.75" y2="187.96" xlink:href="#linear-gradient-3"/><style>.cls-1{fill:#6db33f;}</style><style>.cls-1{fill:#4695eb;}.cls-2{fill:#ff004a;}.cls-3{fill:#091313;}</style><style>.cls-1{fill:#02303a;}</style><symbol id="mail"><title>mail</title><path d="m0 4v8c0 0.55 0.45 1 1 1h12c0.55 0 1-0.45 1-1v-8c0-0.55-0.45-1-1-1h-12c-0.55 0-1 0.45-1 1zm13 0-6 5-6-5zm-12 1.5 4 3-4 3zm1 6.5 3.5-3 1.5 1.5 1.5-1.5 3.5 3zm11-0.5-4-3 4-3z"/></symbol><marker id="marker126054-3" overflow="visible" markerHeight="6.155385" markerWidth="5.3244081" orient="auto-start-reverse" preserveAspectRatio="xMidYMid" viewBox="0 0 5.3244081 6.1553851"><path transform="scale(.5)" d="m5.77 0-8.65 5v-10z" fill="context-stroke" fill-rule="evenodd" stroke="context-stroke" stroke-width="1pt"/></marker></defs><g transform="translate(-64.603 -139.64)"><g transform="matrix(.028708 0 0 .028708 215.66 238.33)"><g fill="#171c21"><path d="m622.44 213.04c-13.928 4.46-24.166 15.139-33.141 26.56-8.764 11.144-17.566 22.261-26.086 33.592-8.555 11.381-19.133 19.67-32.908 23.869-8.746 2.665-17.309 5.927-25.958 8.922 2.828-5.4 6.252-10.053 9.425-14.863 13.758-20.87 26.119-42.431 31.785-67.127 9.534-41.6 5.977-79.189-15.056-115.94-5.4-9.446-46.177-110.52-176.59-93.126-73.916 12.856-130.72 63.7-145.5 127.35-5.284 22.759-7.733 45.057-3.342 67.92 7.679 40 26.8 74.374 52.607 105.36 3.53 4.242 3.332 11.895-2.082 13.263-42.814 10.83-69.7 50.927-86.452 75.418a48.693 48.693 0 0 0-2.888 4.793c-6.394 12.214-7.024 24.357 0.205 36.557 5.542 9.351 13.513 16.094 22.561 21.722 6.5 4.047 13.135 7.89 19.68 11.869 3.827 2.33 7.533 4.859 11.4 7.115 7.175 4.182 14.429 8.232 21.81 12.426-1.17 3.6-2.588 7.074-3.416 10.685-1.6 6.991-5.247 11.9-11.477 15.92-10.484 6.766-19.669 15.239-26.075 26.234-6.447 11.059-7.285 22.487-0.859 33.73 2.853 5 6.9 9.313 10.653 14.255-1.071 0.677-2.411 1.557-3.79 2.382-8.424 5.063-16.895 10.053-25.26 15.222a14.591 14.591 0 0 0-4.536 4.258c-20.09 31.044-22.1 63.82-8.247 97.6 5.407 13.184 15.448 22.1 29.541 19.814 11.568-1.872 20.905-8.069 30.607-14.3 2.395-1.541 6.7-5.72 9.5-6.386 5.05-1.22 10.416-1.4 15.282-3.086 24.879-8.578 46.43-13.974 69.713-26.23 12.394-6.524 27.9-17.631 36.057-29.653 5.354-7.89 11.243-15.315 20.03-19.561 5.635-2.723 17.541-2.77 21.6-7.3 16.165-18.043 31.849-36.544 47.278-55.231a194.09 194.09 0 0 0 37.873-73.029c8.545-31.143 9.442-65.635 14.686-97.462 0.481-2.923 1.688-4.084 4.374-5.029 10.675-3.76 21.487-7.288 31.785-11.922 16-7.2 31.768-14.95 47.366-22.986 17.392-8.956 34.016-19.187 48.681-32.324 19.057-17.077 41.232-38.6 51.269-62.3 8.657-29.94-17.239-73.349-62.105-58.978" fill-rule="evenodd"/><path d="m194.21 745.23c-13.324 0-24.65-8.637-30.918-23.922-14.934-36.41-11.985-71.128 8.767-103.19a20.659 20.659 0 0 1 6.44-6.118c5.854-3.616 11.843-7.195 17.634-10.655l5.613-3.361a72.391 72.391 0 0 1-6.925-9.682c-7.328-12.82-7.03-26.206 0.886-39.788 6.4-10.985 15.568-20.234 28.024-28.274 4.992-3.223 7.641-6.866 8.856-12.178a62.71 62.71 0 0 1 1.954-6.542l-2.01-1.138c-4.8-2.716-10.251-5.8-15.482-8.844-2.338-1.364-4.607-2.814-6.8-4.218l-0.155-0.1c-1.507-0.962-3.016-1.926-4.544-2.856q-3.831-2.328-7.692-4.619l-0.151-0.09c-3.876-2.311-7.886-4.7-11.89-7.193-11.324-7.042-19.132-14.6-24.571-23.777-7.958-13.43-8.08-27.715-0.361-42.458a55.048 55.048 0 0 1 3.254-5.4l0.73-1.068c15.069-22.045 37.84-55.359 72.865-71.086a100.07 100.07 0 0 1 16.149-5.673c9e-3 -0.028 0.018-0.062 0.026-0.1a4.413 4.413 0 0 0-0.9-3.468c-28.991-34.818-46.622-70.178-53.9-108.1-4.058-21.131-3.012-42.854 3.39-70.432 11.8-50.8 48.534-93.387 100.79-116.85a208.14 208.14 0 0 1 49.576-15.1l0.156-0.024c81.415-10.85 145.82 22.331 181.37 93.437 0.555 1.116 1.079 2.165 1.373 2.679 21.079 36.837 26.068 75.066 15.7 120.31-6.062 26.421-19.26 48.818-32.622 69.088 3.207-1.107 6.443-2.182 9.7-3.171a55.8 55.8 0 0 0 6.583-2.467c8.916-4 16.52-10.3 23.246-19.248 7.521-10 15.372-19.978 22.965-29.625l3.2-4.071c7.654-9.742 17.272-20.509 30.568-26.479a52.6 52.6 0 0 1 5.491-2.107c20.745-6.643 40-2.683 54.232 11.148 14.49 14.084 20.882 36.819 15.542 55.287l-0.158 0.447c-10.376 24.535-32.559 46.464-52.89 64.679-13.395 12-29.268 22.55-49.951 33.2-17.414 8.974-33 16.538-47.656 23.126-8.758 3.933-17.779 7.071-26.5 10.1l-5.762 2.011c-0.13 0.045-0.253 0.091-0.37 0.14-9e-3 0.045-0.017 0.094-0.026 0.149-1.894 11.482-3.246 23.627-4.554 35.371l-0.012 0.1c-2.317 20.845-4.714 42.4-10.256 62.61a201.15 201.15 0 0 1-39.044 75.284c-17.7 21.441-32.776 39.051-47.438 55.418a15.644 15.644 0 0 1-5.384 3.761 52.457 52.457 0 0 1-10.792 3.021 42.111 42.111 0 0 0-7.1 1.84c-7.333 3.553-12.272 9.371-17.856 17.6-8.934 13.168-25.617 24.964-38.25 31.614-3.873 2.037-7.73 3.913-11.79 5.737-13.614 6.113-26.744 10.363-40.644 14.863-5.878 1.9-11.868 3.838-18.128 6a57.026 57.026 0 0 1-10.056 2.2l-0.133 0.02c-1.88 0.291-3.824 0.592-5.571 1.012a29.582 29.582 0 0 0-4.391 3.12c-1.3 1.033-2.366 1.872-3.327 2.49l-0.961 0.617a137.26 137.26 0 0 1-17.786 10.215 56.238 56.238 0 0 1-14.17 4.356 32.416 32.416 0 0 1-5.201 0.427zm159.95-728.38a200.1 200.1 0 0 0-47.593 14.5c-49.959 22.431-85.05 63.022-96.276 111.36-6.137 26.436-7.163 47.135-3.327 67.115 7.018 36.558 24.091 70.737 52.194 104.49a12.433 12.433 0 0 1 2.543 10.384 7.772 7.772 0 0 1-4.343 5.551 7.867 7.867 0 0 1-1.3 0.449 91.962 91.962 0 0 0-15.061 5.261c-32.968 14.8-54.974 47-69.536 68.3l-0.731 1.069a46.99 46.99 0 0 0-2.775 4.606c-6.341 12.114-6.289 23.778 0.161 34.661 4.758 8.032 11.722 14.725 21.914 21.063 3.941 2.451 7.917 4.823 11.763 7.116l0.151 0.091c2.588 1.544 5.176 3.088 7.751 4.653 1.579 0.961 3.136 1.955 4.691 2.948l0.158 0.1c2.128 1.363 4.326 2.768 6.523 4.048 5.184 3.023 10.606 6.088 15.39 8.792l7.809 4.42-1.077 3.143q-0.3 0.874-0.607 1.742a67.478 67.478 0 0 0-2.208 7.125c-1.678 7.333-5.591 12.771-12.316 17.113-11.373 7.342-19.7 15.71-25.451 25.581-6.463 11.089-6.741 21.487-0.852 31.791a72.584 72.584 0 0 0 6.888 9.472c0.734 0.906 1.471 1.815 2.2 2.74l2.754 3.476-3.741 2.382c-0.617 0.393-1.265 0.8-1.925 1.193l-7.71 4.616c-5.767 3.445-11.73 7.009-17.531 10.593a12.75 12.75 0 0 0-3.924 3.658c-19.245 29.737-21.964 61.972-8.083 95.813 5.725 13.96 15.467 20.581 27.435 18.634a48.237 48.237 0 0 0 12.178-3.75 131.12 131.12 0 0 0 16.712-9.629l0.986-0.634c0.7-0.448 1.791-1.319 2.67-2.019a32.263 32.263 0 0 1 6.064-4.145 7.542 7.542 0 0 1 1.381-0.481c2.068-0.5 4.208-0.832 6.277-1.152l0.136-0.022a50.123 50.123 0 0 0 8.665-1.854c6.337-2.184 12.364-4.132 18.191-6.017 13.771-4.458 26.7-8.643 39.915-14.578l1.638 3.65-1.638-3.65c3.908-1.754 7.618-3.559 11.343-5.518 11.776-6.2 27.249-17.079 35.354-29.026 6.167-9.088 12.107-16.024 21.051-20.338l0.1-0.046a44.715 44.715 0 0 1 8.813-2.4 47.023 47.023 0 0 0 9.127-2.483 7.929 7.929 0 0 0 2.7-1.8c14.587-16.283 29.594-33.816 47.225-55.171a193.2 193.2 0 0 0 37.5-72.308c5.377-19.6 7.737-40.838 10.02-61.378l0.012-0.1c1.319-11.847 2.683-24.1 4.611-35.784 0.511-3.117 1.809-4.879 4.48-6.078 0.367-0.164 0.754-0.319 1.174-0.465l5.736-2c8.6-2.989 17.448-6.068 25.887-9.858 14.521-6.527 29.984-14.031 47.271-22.94 20.062-10.33 35.4-20.512 48.276-32.046 19.609-17.568 40.96-38.62 50.765-61.615 4.438-15.712-1.093-35.047-13.5-47.1-12.012-11.674-28.426-14.963-46.218-9.264a44.411 44.411 0 0 0-4.652 1.785c-11.713 5.259-20.5 15.147-27.556 24.126l-3.2 4.074c-7.565 9.613-15.389 19.554-22.856 29.484-7.56 10.044-16.181 17.155-26.36 21.73a63.879 63.879 0 0 1-7.529 2.821c-5.974 1.819-11.98 3.963-17.789 6.037l-13.6 4.846 6.017-9.709c1.409-2.274 2.875-4.435 4.293-6.525 0.815-1.2 1.594-2.349 2.353-3.507 12.958-19.654 25.742-41.309 31.521-66.5 9.89-43.161 5.172-79.56-14.849-114.55-0.388-0.68-0.856-1.613-1.587-3.079-33.886-67.787-95.353-99.421-173.07-89.089zm-114.17 707.17h-0.016z"/><path d="m194.08 743.18c-12.522 0-22.878-8.032-28.876-22.658-14.662-35.746-11.772-69.824 8.59-101.29a18.564 18.564 0 0 1 5.791-5.487c5.916-3.656 11.971-7.273 17.826-10.772q3.718-2.221 7.431-4.45c-0.268-0.332-0.536-0.662-0.8-0.989a78.137 78.137 0 0 1-7.43-10.264c-6.838-11.964-6.536-25.011 0.877-37.726 6.234-10.7 15.183-19.721 27.361-27.58 5.487-3.543 8.4-7.567 9.748-13.451a72.082 72.082 0 0 1 2.4-7.769l0.063-0.182-3.533-2c-5.077-2.87-10.327-5.839-15.435-8.815-2.3-1.344-4.553-2.782-6.729-4.173-1.572-1.006-3.144-2.012-4.738-2.981q-3.918-2.382-7.868-4.723c-3.893-2.321-7.918-4.723-11.845-7.166-11.034-6.863-18.625-14.2-23.888-23.079-7.57-12.775-7.674-26.385-0.308-40.452a52.677 52.677 0 0 1 3.129-5.2l0.731-1.068c16.6-24.282 44.379-64.924 88.042-75.969a1.634 1.634 0 0 0 1.225-1.268 6.384 6.384 0 0 0-1.236-5.558c-28.763-34.545-46.25-69.6-53.461-107.17-4-20.834-2.961-42.293 3.374-69.579 7.481-32.216 25.4-61.547 51.828-84.823 26.574-23.406 60.077-39.163 96.885-45.565l0.156-0.024c52.676-7.021 97.314 3.962 132.68 32.645 28 22.714 41.429 49.575 46.484 59.688 0.631 1.261 1.129 2.257 1.427 2.778 20.807 36.36 25.728 74.117 15.484 118.82-5.991 26.11-19.087 48.32-32.346 68.432-0.791 1.2-1.6 2.389-2.406 3.583q-0.517 0.764-1.038 1.534c5.064-1.8 10.257-3.614 15.473-5.2 12.223-3.726 22.323-11.069 30.876-22.446 7.571-10.069 15.479-20.117 23.127-29.833l3.011-3.828c8.656-11.014 19.59-22.942 35.067-27.9 19.981-6.4 38.508-2.614 52.168 10.661 13.968 13.576 20.136 35.468 15 53.237l-0.159 0.449c-10.145 23.954-32.123 45.651-52.284 63.716-13.26 11.879-29 22.334-49.518 32.9-17.361 8.945-32.917 16.493-47.557 23.078-8.617 3.877-17.645 7.015-26.376 10.049q-2.864 1-5.721 2c-1.532 0.539-1.548 0.643-1.757 1.907-1.9 11.564-3.263 23.771-4.577 35.575-2.311 20.78-4.7 42.266-10.2 62.3a199.06 199.06 0 0 1-38.639 74.51c-17.7 21.438-32.756 39.027-47.384 55.355-3.34 3.728-9.3 4.955-15.054 6.14a39.321 39.321 0 0 0-7.785 2.095c-7.542 3.644-12.834 9.913-18.461 18.205-8.717 12.85-25.089 24.411-37.5 30.946-17.755 9.346-34.484 14.76-52.194 20.491-5.842 1.89-11.883 3.844-18.08 5.981a54.78 54.78 0 0 1-9.7 2.111c-2.085 0.321-4.055 0.624-5.95 1.083-1.036 0.246-3.693 2.36-5.12 3.5-1.134 0.9-2.2 1.754-3.154 2.365l-0.961 0.618c-9.42 6.06-19.162 12.326-31.172 14.27a31.252 31.252 0 0 1-5.009 0.409zm160.44-724.3c-35.323 6.158-67.441 21.259-92.89 43.674-25.166 22.162-42.221 50.043-49.326 80.625-6.07 26.142-7.091 46.578-3.311 66.26 6.95 36.207 23.878 70.082 51.753 103.56a14.388 14.388 0 0 1 2.695 13.152 9.645 9.645 0 0 1-6.872 6.549c-40.727 10.3-66.405 47.869-83.4 72.727l-0.731 1.07a44.735 44.735 0 0 0-2.649 4.4c-6.074 11.6-6.041 22.286 0.1 32.658 4.584 7.734 11.331 14.2 21.233 20.364 3.864 2.4 7.856 4.785 11.717 7.088 2.647 1.579 5.295 3.158 7.927 4.759 1.647 1 3.269 2.039 4.891 3.076 2.107 1.347 4.287 2.741 6.449 4 5.061 2.951 10.055 5.774 15.342 8.762q3.2 1.81 6.429 3.642l2.837 1.612-1.009 3.1c-0.376 1.154-0.775 2.3-1.174 3.434a65.205 65.205 0 0 0-2.147 6.907c-1.8 7.891-6 13.734-13.206 18.387-11.1 7.162-19.2 15.3-24.789 24.888-5.976 10.25-6.259 20.253-0.842 29.732a71.107 71.107 0 0 0 6.7 9.192c1.2 1.484 2.448 3.019 3.669 4.628l2.635 3.472-4.622 2.926c-0.9 0.576-1.907 1.221-2.936 1.835q-3.731 2.244-7.487 4.483c-5.83 3.483-11.858 7.086-17.723 10.71a10.642 10.642 0 0 0-3.278 3.023c-18.857 29.139-21.516 60.733-7.907 93.911 3.084 7.52 10.459 19.785 25.2 17.383 10.365-1.678 18.991-7.227 28.124-13.1l0.961-0.618c0.609-0.391 1.528-1.123 2.5-1.9 2.694-2.145 5.479-4.361 8.237-5.017 2.209-0.533 4.439-0.877 6.6-1.209a48.126 48.126 0 0 0 8.3-1.765c6.271-2.163 12.349-4.129 18.226-6.032 17.375-5.622 33.785-10.932 50.931-19.958 11.559-6.084 26.721-16.729 34.61-28.358 5.5-8.1 11.915-16.238 21.6-20.917a43.024 43.024 0 0 1 9.653-2.728c4.067-0.836 9.129-1.878 10.708-3.642 14.556-16.246 29.545-33.758 47.173-55.11a191.11 191.11 0 0 0 37.1-71.54c5.329-19.421 7.685-40.59 9.962-61.063 1.325-11.906 2.7-24.219 4.634-35.991 0.7-4.235 2.79-6.672 6.994-8.152q2.87-1.01 5.751-2.007c8.568-2.977 17.425-6.056 25.721-9.789 14.51-6.526 29.941-14.015 47.176-22.894 19.9-10.248 35.1-20.336 47.843-31.748 19.438-17.418 40.584-38.236 50.16-60.655 4.235-15.013-1.073-33.5-12.954-45.052-11.439-11.116-27.118-14.236-44.152-8.779-13.418 4.3-23.309 15.161-31.216 25.222l-3.015 3.832c-7.621 9.682-15.5 19.7-23.019 29.692-9.606 12.78-21.036 21.053-34.939 25.292-5.941 1.809-11.939 3.95-17.74 6.021-2.689 0.96-5.378 1.92-8.076 2.854l-9.531 3.3 4.679-8.935a119.82 119.82 0 0 1 7.28-11.711c0.789-1.166 1.577-2.327 2.349-3.5 12.846-19.486 25.52-40.946 31.227-65.819 9.768-42.627 5.118-78.553-14.63-113.06-0.41-0.716-0.925-1.747-1.638-3.175-4.844-9.689-17.71-35.428-44.369-57.051-33.561-27.223-76.114-37.63-126.5-30.929z"/></g><path d="m431.84 337.08a158.7 158.7 0 1 0-202.45-96.847 158.69 158.69 0 0 0 202.45 96.847" fill="#fff"/><path d="m230.86 592.39c0.323 0.027 6.115 0.368 14.673-8.522 6.941-7.2 2.507-42.2 0.311-56.745a97.119 97.119 0 0 0-24.674 20.1c-22.109 25.009-10.087 41.667 9.69 45.169" fill="#fff"/><path d="m525.31 166.79c4.034 25.236 1.191 81.6-36.917 114.76-43.7 38.021-103.88 49.291-157.58 13.14-32.777-22.067-57.369-77.789-25.789-108.67s87.361-28.072 135.75-34.537c51.765-6.917 81.425-4.249 84.543 15.309" fill="#171c21"/><path d="m287.6 78.193c54.505-47.333 150.73-37.631 151.76-37.526a158.68 158.68 0 1 0-41.31 304.3c-36.823-1.435-82.127-20.334-122.13-77.978-40.031-57.689-43.117-141.2 11.683-188.8" fill="#e6e7e8"/><path d="m624.84 221.03c-24.538 11.147-44.082 55.377-65.838 71.179-18.161 13.189-68.955 28.294-68.958 28.289l-7e-3 0.038a0.235 0.235 0 0 0 0-0.033 185.53 185.53 0 0 1-215.79 3.9c-0.445 2.769-0.9 5.7-1.381 8.745a13.147 13.147 0 0 0-1.342 0.147c-30.4 5.129-81.432 56.294-86.266 88.136-0.072 0.48-0.12 0.967-0.147 1.454-7e-3 0.157 0 0.318-7e-3 0.482 0 0.329-0.011 0.651 0 0.978 7e-3 0.2 0.032 0.393 0.046 0.587 0.024 0.3 0.044 0.593 0.085 0.887 0.029 0.211 0.068 0.417 0.1 0.628 0.047 0.285 0.1 0.575 0.16 0.86 0.049 0.22 0.106 0.433 0.163 0.647 0.073 0.289 0.148 0.577 0.233 0.857q0.1 0.332 0.213 0.649c0.1 0.292 0.195 0.575 0.307 0.865 0.087 0.212 0.175 0.433 0.267 0.658 0.119 0.287 0.245 0.574 0.376 0.858 0.1 0.221 0.209 0.44 0.314 0.659 0.146 0.287 0.3 0.581 0.453 0.869 0.117 0.223 0.232 0.432 0.354 0.648 0.171 0.3 0.35 0.6 0.53 0.895 0.13 0.209 0.254 0.419 0.391 0.631 0.2 0.306 0.405 0.615 0.613 0.926 0.137 0.2 0.27 0.4 0.412 0.6 0.232 0.322 0.477 0.65 0.718 0.977 0.139 0.183 0.273 0.37 0.415 0.552 0.281 0.361 0.575 0.722 0.874 1.088 0.122 0.144 0.233 0.3 0.355 0.441 0.413 0.5 0.837 0.979 1.276 1.465a0.887 0.887 0 0 0 0.054 0.071c0.47 0.515 0.953 1.037 1.454 1.554 0.078 0.084 0.162 0.166 0.244 0.249 0.414 0.427 0.84 0.864 1.277 1.287 0.156 0.15 0.316 0.3 0.478 0.453 0.371 0.36 0.742 0.718 1.124 1.068 0.195 0.188 0.4 0.367 0.6 0.55 0.353 0.326 0.712 0.652 1.085 0.978 0.218 0.19 0.441 0.381 0.663 0.576 0.365 0.317 0.732 0.63 1.107 0.943 0.236 0.2 0.473 0.394 0.71 0.588 0.375 0.31 0.75 0.623 1.13 0.928l0.753 0.593c0.385 0.308 0.771 0.607 1.162 0.912l0.785 0.6c0.4 0.3 0.8 0.6 1.206 0.9 0.266 0.193 0.532 0.386 0.8 0.593 0.41 0.294 0.829 0.593 1.251 0.9 0.268 0.192 0.543 0.385 0.819 0.586 0.433 0.3 0.867 0.6 1.305 0.906 0.27 0.185 0.542 0.373 0.814 0.557 0.458 0.313 0.921 0.619 1.384 0.93 0.267 0.174 0.531 0.356 0.795 0.525 0.5 0.333 1 0.656 1.5 0.976 0.24 0.159 0.476 0.313 0.718 0.466 0.593 0.38 1.2 0.759 1.807 1.134 0.156 0.1 0.306 0.2 0.46 0.287 0.771 0.482 1.547 0.951 2.331 1.421 0.116 0.073 0.236 0.139 0.353 0.212 0.659 0.39 1.316 0.785 1.986 1.171 0.286 0.163 0.578 0.332 0.871 0.5 0.5 0.292 1 0.578 1.5 0.866 0.337 0.188 0.676 0.376 1.012 0.565 0.466 0.26 0.932 0.523 1.394 0.776 0.365 0.206 0.731 0.4 1.1 0.6 0.444 0.248 0.885 0.483 1.328 0.722 0.392 0.213 0.779 0.42 1.169 0.624 0.423 0.221 0.85 0.453 1.275 0.672 0.405 0.213 0.814 0.432 1.226 0.642s0.819 0.42 1.234 0.635 0.846 0.432 1.27 0.643c0.4 0.207 0.8 0.407 1.2 0.606 0.434 0.219 0.87 0.437 1.3 0.642 0.391 0.2 0.779 0.382 1.164 0.571 0.458 0.221 0.909 0.444 1.367 0.658 0.362 0.172 0.723 0.35 1.087 0.52 0.476 0.225 0.957 0.457 1.443 0.686 0.326 0.153 0.654 0.3 0.987 0.457 0.512 0.24 1.026 0.471 1.539 0.707 0.275 0.125 0.544 0.243 0.823 0.372 0.562 0.253 1.129 0.514 1.694 0.766l0.474 0.207c3.827 1.695 7.633 3.288 11.356 4.751 0.068 0.025 0.143 0.058 0.218 0.086 0.679 0.268 1.349 0.522 2.025 0.782 0.117 0.04 0.241 0.091 0.364 0.137 0.653 0.253 1.308 0.492 1.955 0.738 0.13 0.045 0.256 0.1 0.39 0.149 0.648 0.242 1.3 0.473 1.935 0.7 0.121 0.046 0.247 0.088 0.368 0.135 0.642 0.233 1.282 0.451 1.916 0.681 0.116 0.04 0.235 0.082 0.351 0.115 0.648 0.236 1.291 0.453 1.93 0.672 0.089 0.031 0.173 0.057 0.257 0.078 0.665 0.228 1.319 0.449 1.974 0.661 0.05 0.017 0.105 0.033 0.157 0.049 8.572 2.793 16.115 4.644 21.674 5.261h7e-3a27.054 27.054 0 0 0 5.692 0.144 18.929 18.929 0 0 0 5.058-1.309c0.213-0.09 0.42-0.161 0.632-0.256l0.018-8e-3a24.6 24.6 0 0 0 2.466-1.282v-8e-3c0.45-0.269 0.89-0.553 1.331-0.852 0.74-0.5 1.465-1.044 2.175-1.629 6e-3 0 0.011-0.011 0.013-0.012 0.276-0.225 0.55-0.473 0.821-0.715 0.392-0.345 0.777-0.689 1.159-1.054s0.738-0.717 1.1-1.1c0-7e-3 0-8e-3 8e-3 -9e-3 0.351-0.366 0.688-0.751 1.032-1.132 0.142-0.155 0.282-0.3 0.418-0.467a0.011 0.011 0 0 1 6e-3 -8e-3c0.41-0.466 0.812-0.953 1.208-1.45 0.066-0.081 0.132-0.16 0.193-0.246h0.01c0.2-0.258 0.41-0.513 0.613-0.775v-0.01c0.1-0.125 0.194-0.261 0.293-0.389 0.588-0.791 1.156-1.607 1.712-2.436a0.035 0.035 0 0 0 0.014-0.021c0.117-0.179 0.24-0.353 0.356-0.54v-8e-3c0.352-0.537 0.7-1.078 1.033-1.628 0.012-0.027 0.029-0.047 0.042-0.074v-7e-3a75.649 75.649 0 0 0 6.718-14.414 0.315 0.315 0 0 1 0.027-0.08c0.192-0.573 0.379-1.139 0.559-1.7 0.035-0.1 0.065-0.2 0.1-0.305 0.538-1.716 1-3.417 1.392-5.078 0.022-0.083 0.044-0.173 0.064-0.255 0.112-0.486 0.209-0.958 0.308-1.438 0.039-0.186 0.079-0.363 0.111-0.543 0.087-0.468 0.177-0.928 0.26-1.377 0.02-0.15 0.044-0.295 0.065-0.442 0.168-1.008 0.3-2 0.4-2.953a0.151 0.151 0 0 0 6e-3 -0.043c2.939 12.125 2.448 29.125-12.562 47.437-0.342 0.413-0.692 0.807-1.05 1.191-0.023 0-0.049-0.018-0.069-0.015-9.924 10.776-26.551 12.075-43.851 8.786-0.048-0.015-0.092-0.021-0.14-0.032-0.656-0.126-1.312-0.257-1.976-0.4-0.215-0.044-0.429-0.095-0.638-0.133l-1.513-0.341c-0.411-0.1-0.822-0.2-1.231-0.293-0.318-0.078-0.638-0.155-0.957-0.239-0.673-0.17-1.346-0.342-2.018-0.525a1.9 1.9 0 0 1-0.19-0.05 145.49 145.49 0 0 1-14.217-4.673c-0.264 7.556-0.332 14.639-0.169 21.026a0.279 0.279 0 0 0 0 0.063c-0.917 19.021 0.88 42.245 1.524 55.735 0 0.059 0 0.111 0.01 0.17 0.023 0.556 0.047 1.1 0.073 1.628v0.2c0.019 0.412 0.032 0.807 0.046 1.2 7e-3 0.19 0.011 0.375 0.018 0.565 9e-3 0.269 0.022 0.53 0.023 0.778 6e-3 0.2 0.014 0.379 0.016 0.565 0 0.243 6e-3 0.47 0.012 0.7 0 0.167 8e-3 0.337 6e-3 0.5 0 0.289 8e-3 0.563 7e-3 0.836 0 0.156 0 0.309-8e-3 0.464 0 0.24-7e-3 0.468-9e-3 0.684 0 0.116-0.013 0.218-0.017 0.329-5e-3 0.175-0.014 0.344-0.024 0.5-5e-3 0.1-0.015 0.2-0.02 0.3-0.013 0.147-0.028 0.294-0.046 0.428 0 0.076-0.016 0.148-0.021 0.218-0.03 0.185-0.061 0.362-0.095 0.5a3.3 3.3 0 0 1-0.244 0.637c-0.044 0.093-0.1 0.183-0.155 0.293-0.057 0.087-0.123 0.193-0.191 0.288a15.853 15.853 0 0 1-3.451 3.349s0.01 0 0.016 8e-3c-11.067 8.445-41.552 20.922-52.6 29.038a14.688 14.688 0 0 0-4.368 5.808c-7.765 11.439-22.579 38.885-15.949 74.618 7.866 42.4 39.769 31.3 52.646 5.186-17.6-2.916-25.952-15.7-24.153-15.046 0.505 0.46 1.019 0.906 1.547 1.328l0.022 0.021a15.18 15.18 0 0 0 6.5 3.743c0.1 0.045 0.21 0.093 0.316 0.131 27.195 10.024 123.5-20.136 135.77-54.184 1.409-3.9 2.956-8.088 4.568-12.443v-0.014c7e-3 -0.012 0-0.027 0-0.05 0.235-0.651 0.487-1.37 0.751-2.136 5.059-14.656 15.591-48.653 16.144-51.307 0.567-2.694 3.671 9.9-2.657 49.891-0.22 1.432 0.227 3.217 2.8 2.794 7-1.325 12.807-3.976 16.788-8.369 27.418-30.252 46.788-55.719 64.189-85.84a3.861 3.861 0 0 0 0.439-1.344c15.961-30.231 27.283-81.325 32.8-128.62 0.5-8.81 0.969-19.412 0.974-28.281v-0.074c0-2.11-0.025-4.118-0.088-5.983 0-0.182-6e-3 -0.369-0.014-0.558-0.032-0.883-0.066-1.745-0.112-2.549-0.017-0.188-0.017-0.36-0.021-0.5a0.781 0.781 0 0 1 7e-3 -0.135v-0.26c0-0.08 0.015-0.145 0.026-0.208 0-0.025 7e-3 -0.055 7e-3 -0.073 0.19-1.054 1.046 0.547 2.256 3.829v-0.013c1.667 4.554 4.02 12.388 6.3 21.2 33.29-12.44 85.341-32.7 98.839-42.553 22.153-16.193 80.622-70.212 79.178-89.016-1.857-24.238-25.1-47.86-49.631-36.71m-357.25 192.43c0.022-0.044 0.039-0.079 0.06-0.119 0.077-0.148 0.162-0.306 0.264-0.48a0.116 0.116 0 0 0 0.024-0.045c0.113-0.182 0.24-0.387 0.384-0.6 0.035-0.062 0.08-0.116 0.118-0.179 0.129-0.187 0.267-0.38 0.413-0.587 0.03-0.041 0.054-0.076 0.083-0.117 0.174-0.243 0.363-0.5 0.566-0.759 0.055-0.071 0.116-0.154 0.175-0.232 0.169-0.217 0.345-0.45 0.528-0.685 0.055-0.064 0.1-0.124 0.154-0.188 0.222-0.287 0.461-0.588 0.708-0.892 0.081-0.1 0.171-0.205 0.252-0.312 0.189-0.226 0.381-0.465 0.573-0.705 0.093-0.109 0.181-0.216 0.272-0.321l0.788-0.954c0.139-0.158 0.276-0.324 0.413-0.493 0.159-0.184 0.317-0.375 0.479-0.567 5.164-6.134 12.558-14.529 18.966-22.945a0.188 0.188 0 0 1 0.019-0.026q1.331-1.747 2.594-3.485c0.018-0.021 0.031-0.042 0.045-0.06q1.254-1.735 2.412-3.437a0.424 0.424 0 0 0 0.048-0.067c0.369-0.546 0.731-1.089 1.089-1.636a0.626 0.626 0 0 1 0.045-0.06c0.361-0.557 0.715-1.111 1.053-1.658a0.384 0.384 0 0 0 0.044-0.069c0.32-0.518 0.634-1.021 0.932-1.531 0.03-0.047 0.057-0.1 0.082-0.144 0.316-0.529 0.619-1.057 0.907-1.575l6e-3 -0.015c2.59 5.69-10 33.7-17.059 48.57-0.1-6e-3 -0.193-0.011-0.293-0.021-0.485-0.027-0.964-0.061-1.435-0.088-0.17-0.01-0.34-0.022-0.513-0.037-0.392-0.023-0.785-0.046-1.172-0.074-0.665-0.041-1.323-0.086-1.956-0.121-0.1-6e-3 -0.21-0.013-0.316-0.024-0.514-0.029-1.014-0.065-1.5-0.1-0.1-0.011-0.2-0.014-0.291-0.02q-0.657-0.045-1.282-0.095a1.858 1.858 0 0 1-0.2-0.018c-0.455-0.028-0.889-0.066-1.315-0.1-0.093-0.014-0.181-0.014-0.271-0.025-0.427-0.035-0.837-0.075-1.229-0.123h-0.02c-0.391-0.039-0.762-0.084-1.12-0.132-0.075-9e-3 -0.157-0.021-0.231-0.028-0.35-0.051-0.686-0.1-1-0.151a0.242 0.242 0 0 1-0.08-0.016c-0.287-0.046-0.556-0.106-0.813-0.156-0.059-0.013-0.116-0.028-0.167-0.038-0.267-0.061-0.514-0.131-0.735-0.2-0.04-9e-3 -0.07-0.021-0.109-0.03a4.7 4.7 0 0 1-0.534-0.2 0.852 0.852 0 0 1-0.1-0.04 3.28 3.28 0 0 1-0.444-0.248c-0.019-0.016-0.046-0.035-0.074-0.059a1.553 1.553 0 0 1-0.272-0.264 0.21 0.21 0 0 0-0.027-0.034 0.717 0.717 0 0 1-0.134-0.319c0-0.027-0.01-0.057-0.011-0.078a1.069 1.069 0 0 1 0.036-0.375 2.926 2.926 0 0 1 0.174-0.418" fill="#fff"/><g fill="#e6e7e8"><path d="m245.53 583.87c2.175-2.258 3.223-7.255 3.587-13.49-1.9 0.345-4.747 1.01-9.112 2.152-15.253 3.98-27.19-13.2-27.25-13.3-9.385 18.345 1.777 30.306 18.275 33.165 1.085 0.013 6.622-0.34 14.5-8.524"/><path d="m224.25 702.55c-1.55 1.922-3.679 4.6-6.693 8.423-12.512 15.87-29.667 6.655-33.524 4.268 12.111 22.332 36.344 11.086 47.2-10.889a41.536 41.536 0 0 1-6.982-1.8"/><path d="m643.65 257.74c-0.429 1.161-52.362 71.823-57.068 67.623s-20.651-17.832-19.742-15.258 10.171 16.966 4.262 21.559c-5.587 4.348-73.066 34.272-80.551 37.587 0.932 2.661 2.031 6.14 3.194 10.184l2.707 9.885c33.322-12.47 85.49-32.8 98.839-42.553 19.53-14.276 67.262-57.94 77.3-80.958-12.961 7.943-28.515-9.223-28.942-8.066"/><path d="m471.14 399.91a66.813 66.813 0 0 1 16.186-1.129c0.465-9.026 0.847-19.158 0.734-27.32a91.972 91.972 0 0 0-16.92 28.449"/><path d="m468.24 467.73c-3.79 0.555-7.868 1.111-11.993 1.643-0.2 0.03-0.4 0.053-0.6 0.076-0.684 0.089-1.37 0.177-2.055 0.258-0.856 0.112-1.717 0.216-2.574 0.328-10.917 1.35-21.457 2.481-27.132 3.077 20.972 2.977 19.952 16.252 19.926 16.591-12.57 33.849-26.44 67.037-31.219 73.887-8.541 12.236-36.063 22.653-38.625 23.605-0.2 8.028-1.18 20.061-3.869 37.094-0.217 1.418 0.233 3.147 2.714 2.788 7.044-1.3 12.871-3.953 16.874-8.362 27.421-30.253 46.789-55.723 64.192-85.842a3.847 3.847 0 0 0 0.432-1.385c8.816-16.7 16.208-39.776 21.993-65.047-2.44 0.431-5.169 0.862-8.064 1.289"/></g><g fill="#171c21"><path d="m316.05 415.04q0.525-5.964 0.922-12.388a0.51 0.51 0 0 0-0.065-0.017c-1.369 4.072-2.789 7.961-4.26 11.628-0.566-0.126-1.134-0.251-1.7-0.372q-1.089-6.168-2.254-12.629a0.622 0.622 0 0 0-0.063 0q-0.447 6.219-1.017 11.949c-0.579-0.114-1.152-0.224-1.729-0.33 0.467-4.568 0.875-9.4 1.228-14.453q1.352 0.169 2.713 0.36 1.165 6.3 2.257 12.358c0.027 6e-3 0.055 9e-3 0.082 0.015 1.364-3.609 2.682-7.413 3.953-11.382 0.963 0.165 1.927 0.342 2.9 0.525-0.29 5.27-0.642 10.347-1.056 15.194q-0.957-0.233-1.912-0.456"/><path d="m318.23 415.87-0.34-0.083q-0.956-0.231-1.91-0.455l-0.252-0.059 0.022-0.259c0.3-3.364 0.563-6.851 0.8-10.388-1.188 3.44-2.4 6.712-3.62 9.748l-0.1 0.236-0.5-0.11c-0.482-0.106-0.964-0.213-1.444-0.315l-0.2-0.042-0.035-0.2q-0.914-5.169-1.879-10.547c-0.254 3.332-0.543 6.633-0.861 9.842l-0.032 0.329-0.324-0.064c-0.578-0.113-1.15-0.224-1.725-0.329l-0.272-0.05 0.028-0.275c0.456-4.469 0.87-9.328 1.227-14.444l0.022-0.316 0.315 0.039q1.353 0.169 2.717 0.361l0.214 0.03 0.039 0.213q1.079 5.827 2.092 11.445c1.224-3.286 2.44-6.811 3.619-10.492l0.08-0.248 0.257 0.044c0.964 0.165 1.93 0.343 2.9 0.526l0.258 0.049-0.015 0.262c-0.288 5.253-0.644 10.369-1.056 15.2zm-1.859-1.062q0.66 0.154 1.32 0.314c0.393-4.644 0.733-9.545 1.012-14.574-0.8-0.148-1.587-0.294-2.378-0.432-1.263 3.931-2.567 7.68-3.878 11.15l-0.091 0.24-0.449-0.1-0.118-0.213q-1.074-5.949-2.218-12.144-1.092-0.151-2.18-0.29c-0.345 4.9-0.742 9.564-1.178 13.87q0.567 0.105 1.136 0.217c0.371-3.78 0.7-7.684 0.983-11.613l0.019-0.266 0.283-0.013 0.3 0.017 0.054 0.233q1.142 6.353 2.218 12.432c0.416 0.089 0.833 0.181 1.25 0.273 1.4-3.515 2.8-7.34 4.16-11.376l0.089-0.265 0.573 0.174-0.014 0.223c-0.248 4.139-0.551 8.222-0.893 12.139z"/><path d="m332.21 419.22c0.341-5.146 0.62-10.487 0.838-15.985l1.928 0.452c-0.207 5.527-0.475 10.9-0.806 16.084q-0.981-0.276-1.96-0.551"/><path d="m334.45 420.16-2.552-0.717 0.016-0.243c0.338-5.078 0.619-10.453 0.838-15.977l0.015-0.364 2.523 0.592-0.01 0.247c-0.21 5.58-0.481 11-0.807 16.092zm-1.921-1.164 1.369 0.384c0.31-4.907 0.57-10.106 0.773-15.459l-1.334-0.313c-0.213 5.316-0.485 10.488-0.808 15.388z"/><path d="m356 425.92a3.933 3.933 0 0 1-2.311-0.072 5.75 5.75 0 0 1-2.342-1.352 7.74 7.74 0 0 1-1.68-2.328 11.626 11.626 0 0 1-0.971-3.052 15.9 15.9 0 0 1-0.25-3.584 14.512 14.512 0 0 1 0.5-3.416 7.95 7.95 0 0 1 1.182-2.532 4.091 4.091 0 0 1 1.778-1.429 3.629 3.629 0 0 1 2.312-0.1 5.8 5.8 0 0 1 2.171 1.067 5.973 5.973 0 0 1 1.611 2q-0.63 0.588-1.265 1.166a5.016 5.016 0 0 0-1.107-1.452 3.445 3.445 0 0 0-1.366-0.735 2.066 2.066 0 0 0-1.571 0.157 3.068 3.068 0 0 0-1.132 1.219 7.76 7.76 0 0 0-0.71 2.026 15.076 15.076 0 0 0-0.3 2.6 15.815 15.815 0 0 0 0.128 2.7 10.589 10.589 0 0 0 0.588 2.344 5.822 5.822 0 0 0 1.066 1.793 3.343 3.343 0 0 0 1.575 1 2.068 2.068 0 0 0 1.479-0.054 2.264 2.264 0 0 0 1.063-0.869q0.579 0.879 1.163 1.761a3.364 3.364 0 0 1-1.611 1.142"/><path d="m355.05 426.36a5.16 5.16 0 0 1-1.443-0.225 6.05 6.05 0 0 1-2.462-1.421 8.089 8.089 0 0 1-1.744-2.416 11.834 11.834 0 0 1-1-3.128 16.079 16.079 0 0 1-0.255-3.649 14.892 14.892 0 0 1 0.508-3.487 8.275 8.275 0 0 1 1.229-2.629 4.395 4.395 0 0 1 1.906-1.529 3.924 3.924 0 0 1 2.5-0.11 6.106 6.106 0 0 1 2.282 1.122 6.321 6.321 0 0 1 1.693 2.1l0.1 0.2-0.166 0.156q-0.633 0.588-1.268 1.168l-0.285 0.259-0.182-0.339a4.69 4.69 0 0 0-1.038-1.368 3.15 3.15 0 0 0-1.249-0.67 1.754 1.754 0 0 0-1.344 0.127 2.774 2.774 0 0 0-1.017 1.1 7.416 7.416 0 0 0-0.68 1.947 14.582 14.582 0 0 0-0.295 2.542 15.464 15.464 0 0 0 0.125 2.647 10.25 10.25 0 0 0 0.571 2.277 5.484 5.484 0 0 0 1.009 1.7 3.043 3.043 0 0 0 1.434 0.912 1.778 1.778 0 0 0 1.273-0.039 1.987 1.987 0 0 0 0.938-0.763l0.252-0.375 1.529 2.315-0.131 0.17a3.661 3.661 0 0 1-1.739 1.244h-6e-3a3.392 3.392 0 0 1-1.045 0.162zm-1.893-18.145a3.027 3.027 0 0 0-1.141 0.217 3.793 3.793 0 0 0-1.646 1.328 7.68 7.68 0 0 0-1.137 2.439 14.3 14.3 0 0 0-0.484 3.343 15.448 15.448 0 0 0 0.245 3.517 11.211 11.211 0 0 0 0.946 2.976 7.473 7.473 0 0 0 1.615 2.241 5.458 5.458 0 0 0 2.221 1.283 3.659 3.659 0 0 0 2.132 0.075 3.042 3.042 0 0 0 1.328-0.882l-0.813-1.231a2.5 2.5 0 0 1-0.931 0.639 2.375 2.375 0 0 1-1.674 0.063 3.648 3.648 0 0 1-1.713-1.087 6.079 6.079 0 0 1-1.123-1.885 10.862 10.862 0 0 1-0.605-2.411 15.954 15.954 0 0 1-0.131-2.75 15.213 15.213 0 0 1 0.309-2.649 8.048 8.048 0 0 1 0.739-2.107 3.353 3.353 0 0 1 1.245-1.336 2.36 2.36 0 0 1 1.8-0.189 3.751 3.751 0 0 1 1.488 0.8 4.931 4.931 0 0 1 0.987 1.2q0.41-0.374 0.817-0.753a5.632 5.632 0 0 0-1.423-1.7 5.524 5.524 0 0 0-2.059-1.012 4 4 0 0 0-0.992-0.129z"/><path d="m377.74 432.24q-1.308-4.295-2.623-8.6c-0.615-0.152-1.228-0.309-1.84-0.463q-0.05 3.947-0.129 7.842-0.995-0.276-1.992-0.556c0.125-5.79 0.193-11.683 0.209-17.648q2.044 0.512 4.1 1.009a6.187 6.187 0 0 1 1.644 0.662 5.034 5.034 0 0 1 1.366 1.176 5.615 5.615 0 0 1 0.92 1.748 7.45 7.45 0 0 1 0.338 2.346 5.908 5.908 0 0 1-0.252 1.851 3.792 3.792 0 0 1-0.657 1.22 2.543 2.543 0 0 1-0.878 0.686 2.45 2.45 0 0 1-0.927 0.195q1.465 4.565 2.923 9.117c-0.733-0.195-1.466-0.387-2.2-0.583m-0.028-12.893a4.7 4.7 0 0 0-0.222-1.549 3.671 3.671 0 0 0-0.586-1.091 2.851 2.851 0 0 0-0.82-0.693 4.037 4.037 0 0 0-0.945-0.363l-1.81-0.453q-9e-3 3.126-0.035 6.225c0.62 0.16 1.244 0.318 1.864 0.478a1.906 1.906 0 0 0 1.852-0.363 2.91 2.91 0 0 0 0.7-2.191"/><path d="m380.39 433.25-2.9-0.767-0.049-0.16q-1.281-4.212-2.572-8.438l-1.308-0.33q-0.048 3.756-0.124 7.464l-8e-3 0.385-0.372-0.1q-1-0.276-1.993-0.556l-0.224-0.063 6e-3 -0.233c0.121-5.647 0.191-11.583 0.208-17.641v-0.383l0.372 0.092q2.043 0.512 4.1 1.007a6.547 6.547 0 0 1 1.726 0.7 5.325 5.325 0 0 1 1.445 1.243 5.9 5.9 0 0 1 0.972 1.844 7.762 7.762 0 0 1 0.353 2.442 6.153 6.153 0 0 1-0.267 1.947 4.113 4.113 0 0 1-0.712 1.318 2.561 2.561 0 0 1-1.633 0.952q1.407 4.386 2.809 8.759zm-2.419-1.261 1.512 0.4q-1.374-4.3-2.756-8.6l-0.124-0.389h0.409a2.152 2.152 0 0 0 0.812-0.172 2.241 2.241 0 0 0 0.765-0.6 3.505 3.505 0 0 0 0.6-1.125 5.569 5.569 0 0 0 0.236-1.755 7.167 7.167 0 0 0-0.324-2.25 5.277 5.277 0 0 0-0.868-1.654 4.729 4.729 0 0 0-1.28-1.1 5.952 5.952 0 0 0-1.569-0.633q-1.865-0.452-3.729-0.915c-0.018 5.847-0.086 11.575-0.2 17.038l1.395 0.389q0.078-3.7 0.121-7.453v-0.38l2.373 0.6 0.049 0.162q1.297 4.224 2.578 8.437zm-2.162-9.708a3.064 3.064 0 0 1-0.729-0.094l-2.1-0.537v-0.234q0.027-3.1 0.035-6.223v-0.383l2.182 0.546a4.322 4.322 0 0 1 1.015 0.39 3.113 3.113 0 0 1 0.909 0.767 3.932 3.932 0 0 1 0.637 1.179 5.045 5.045 0 0 1 0.239 1.652 3.209 3.209 0 0 1-0.794 2.407 2.008 2.008 0 0 1-1.394 0.53zm-2.22-1.095 1.637 0.419a1.609 1.609 0 0 0 1.576-0.293 2.66 2.66 0 0 0 0.6-1.969 4.431 4.431 0 0 0-0.205-1.45 3.292 3.292 0 0 0-0.536-1 2.506 2.506 0 0 0-0.73-0.619 3.709 3.709 0 0 0-0.875-0.336l-1.438-0.36q-6e-3 2.819-0.029 5.608z"/><path d="m403.96 429.06a18.371 18.371 0 0 1-0.3 3.9 9.035 9.035 0 0 1-1.029 2.859 4.181 4.181 0 0 1-1.688 1.65 3.418 3.418 0 0 1-2.292 0.223 4.917 4.917 0 0 1-2.308-1.186 7.989 7.989 0 0 1-1.735-2.334 13.077 13.077 0 0 1-1.1-3.268 20.852 20.852 0 0 1-0.4-4 18.761 18.761 0 0 1 0.315-3.85 8.708 8.708 0 0 1 1.007-2.815 3.955 3.955 0 0 1 1.669-1.607 3.45 3.45 0 0 1 2.291-0.257 4.632 4.632 0 0 1 2.263 1.117 7.808 7.808 0 0 1 1.728 2.252 13.336 13.336 0 0 1 1.135 3.263 21.511 21.511 0 0 1 0.446 4.045m-2.122-0.384a20.7 20.7 0 0 0-0.263-3 13.754 13.754 0 0 0-0.664-2.524 6.353 6.353 0 0 0-1.055-1.8 2.525 2.525 0 0 0-1.426-0.849 1.752 1.752 0 0 0-1.435 0.305 3.341 3.341 0 0 0-1.017 1.4 9.007 9.007 0 0 0-0.583 2.275 19.983 19.983 0 0 0-0.163 2.886 22.2 22.2 0 0 0 0.239 2.979 11.574 11.574 0 0 0 0.638 2.509 5.982 5.982 0 0 0 1.059 1.823 2.618 2.618 0 0 0 1.467 0.874 1.666 1.666 0 0 0 1.43-0.281 3.477 3.477 0 0 0 1.011-1.4 9.466 9.466 0 0 0 0.594-2.277 17.481 17.481 0 0 0 0.165-2.909"/><path d="m399.53 438.09a4.451 4.451 0 0 1-0.939-0.105 5.209 5.209 0 0 1-2.446-1.255 8.286 8.286 0 0 1-1.8-2.422 13.4 13.4 0 0 1-1.131-3.343 21.1 21.1 0 0 1-0.4-4.055 19.072 19.072 0 0 1 0.321-3.91 9.02 9.02 0 0 1 1.044-2.912 4.263 4.263 0 0 1 1.8-1.724 3.766 3.766 0 0 1 2.476-0.279 4.929 4.929 0 0 1 2.406 1.186 8.153 8.153 0 0 1 1.794 2.336 13.718 13.718 0 0 1 1.162 3.341 21.992 21.992 0 0 1 0.453 4.1 18.7 18.7 0 0 1-0.309 3.969 9.184 9.184 0 0 1-1.067 2.957 4.479 4.479 0 0 1-1.81 1.762 3.454 3.454 0 0 1-1.554 0.354zm-1.966-19.5a2.883 2.883 0 0 0-1.327 0.308 3.679 3.679 0 0 0-1.547 1.5 8.463 8.463 0 0 0-0.97 2.719 18.589 18.589 0 0 0-0.31 3.788 20.61 20.61 0 0 0 0.39 3.94 12.8 12.8 0 0 0 1.078 3.192 7.724 7.724 0 0 0 1.668 2.247 4.637 4.637 0 0 0 2.168 1.114 3.112 3.112 0 0 0 2.1-0.2 3.914 3.914 0 0 0 1.563-1.535 8.765 8.765 0 0 0 0.992-2.766 18.113 18.113 0 0 0 0.3-3.839 21.353 21.353 0 0 0-0.439-3.987 13.106 13.106 0 0 0-1.108-3.189 7.526 7.526 0 0 0-1.659-2.163 4.328 4.328 0 0 0-2.123-1.048 4 4 0 0 0-0.776-0.075zm1.522 17.3a2.34 2.34 0 0 1-0.51-0.058 2.9 2.9 0 0 1-1.624-0.967 6.265 6.265 0 0 1-1.115-1.917 11.794 11.794 0 0 1-0.654-2.57 22.252 22.252 0 0 1-0.243-3.019 20.282 20.282 0 0 1 0.166-2.932 9.209 9.209 0 0 1 0.605-2.352 3.632 3.632 0 0 1 1.113-1.52 2.065 2.065 0 0 1 1.665-0.361 2.833 2.833 0 0 1 1.595 0.945 6.718 6.718 0 0 1 1.11 1.892 14.184 14.184 0 0 1 0.682 2.584 20.978 20.978 0 0 1 0.267 3.047 17.775 17.775 0 0 1-0.167 2.959 9.782 9.782 0 0 1-0.616 2.35 3.743 3.743 0 0 1-1.1 1.525 1.918 1.918 0 0 1-1.174 0.4zm-1.051-15.14a1.4 1.4 0 0 0-0.854 0.287 3.059 3.059 0 0 0-0.919 1.274 8.764 8.764 0 0 0-0.562 2.2 19.632 19.632 0 0 0-0.16 2.842 21.771 21.771 0 0 0 0.236 2.938 11.217 11.217 0 0 0 0.621 2.443 5.668 5.668 0 0 0 1 1.736 2.318 2.318 0 0 0 1.3 0.777 1.378 1.378 0 0 0 1.194-0.228 3.172 3.172 0 0 0 0.914-1.283 9.237 9.237 0 0 0 0.573-2.2 17.1 17.1 0 0 0 0.161-2.858 20.165 20.165 0 0 0-0.259-2.959 13.572 13.572 0 0 0-0.648-2.467 6.149 6.149 0 0 0-1-1.714 2.214 2.214 0 0 0-1.255-0.75 1.888 1.888 0 0 0-0.342-0.034z"/><path d="m425.42 441.41q-3.541-9.453-7.081-18.862a0.314 0.314 0 0 1-0.04-0.013q0.333 9.054 0.6 18.159c-0.162-0.02-0.324-0.039-0.488-0.057-0.172-6.288-0.378-12.582-0.6-18.844l0.772 0.095q3.528 9.384 7.058 18.811a0.42 0.42 0 0 0 0.045 0.011q-0.339-9.158-0.74-18.24c0.157 9e-3 0.316 0.02 0.471 0.033q0.4 9.43 0.759 18.964z"/><path d="m426.48 441.8-1.277-0.1-0.067-0.178q-3.238-8.646-6.477-17.256c0.22 6.091 0.4 11.481 0.536 16.426l0.01 0.349-1.091-0.126-7e-3 -0.263c-0.16-5.817-0.357-11.98-0.6-18.84l-0.013-0.351 1.3 0.158 0.064 0.17q3.23 8.588 6.457 17.208c-0.229-6.057-0.478-11.946-0.675-16.508l-0.015-0.331 0.331 0.019c0.16 9e-3 0.321 0.021 0.48 0.034l0.263 0.021 0.012 0.265c0.3 7.038 0.551 13.242 0.759 18.967zm-0.849-0.668 0.225 0.017v-0.087l-0.272-0.06c0.017 0.04 0.03 0.084 0.047 0.127zm-7.515-18.991 0.276 0.115c-0.011-0.028-0.022-0.058-0.033-0.085z"/><path d="m445.18 436.37q-2.456 0.141-4.976 0.175-0.391 2.75-0.8 5.5c-0.151 0-0.3 8e-3 -0.458 0.01 0.918-6.425 1.78-12.846 2.618-19.212 0.25-0.01 0.5-0.028 0.748-0.041q2.286 9.4 4.626 18.987c-0.144 0.012-0.286 0.024-0.432 0.034q-0.671-2.733-1.33-5.455m-4.9-0.355q2.412-0.045 4.766-0.185-1.532-6.338-3.038-12.593h-0.08q-0.8 6.358-1.648 12.779"/><path d="m438.61 442.36 0.05-0.346c1.006-7.04 1.927-13.964 2.617-19.208l0.034-0.25 0.252-0.011c0.158-7e-3 0.316-0.017 0.474-0.026l0.518-0.03 4.768 19.57-1.036 0.083-1.333-5.459c-1.476 0.082-2.982 0.134-4.482 0.158q-0.375 2.622-0.76 5.25l-0.037 0.251zm3.445-17.678q-0.694 5.49-1.426 11.025c1.36-0.029 2.719-0.081 4.047-0.156q-1.32-5.466-2.621-10.869z"/><path d="m463.99 434.7a11.93 11.93 0 0 1-0.3 2.557 5.115 5.115 0 0 1-0.823 1.867 2.524 2.524 0 0 1-1.464 0.971 1.967 1.967 0 0 1-1.6-0.221 3.371 3.371 0 0 1-1.125-1.392 9.119 9.119 0 0 1-0.715-2.29 27.711 27.711 0 0 1-0.383-2.941q-0.461-6.115-0.9-12.11c0.131-0.029 0.262-0.053 0.39-0.081q0.425 5.85 0.883 11.823c0.073 0.865 0.17 1.729 0.3 2.587a10.555 10.555 0 0 0 0.586 2.259 3.628 3.628 0 0 0 1 1.5 1.635 1.635 0 0 0 1.52 0.32 2.257 2.257 0 0 0 1.382-1 5.629 5.629 0 0 0 0.7-1.9 12.206 12.206 0 0 0 0.187-2.435c-0.014-0.892-0.049-1.789-0.132-2.7q-0.5-5.967-0.963-11.808l0.359-0.1q0.477 5.979 1 12.106a25.987 25.987 0 0 1 0.1 3"/><path d="m460.83 440.47a2.152 2.152 0 0 1-1.183-0.343 3.663 3.663 0 0 1-1.233-1.516 9.46 9.46 0 0 1-0.739-2.362 27.709 27.709 0 0 1-0.387-2.974q-0.461-6.115-0.9-12.112l-0.02-0.26 0.983-0.207 0.024 0.344q0.424 5.847 0.883 11.821c0.078 0.921 0.176 1.761 0.3 2.565a10.23 10.23 0 0 0 0.566 2.193 3.361 3.361 0 0 0 0.909 1.376 1.35 1.35 0 0 0 1.264 0.258 1.958 1.958 0 0 0 1.194-0.872 5.349 5.349 0 0 0 0.657-1.8 11.758 11.758 0 0 0 0.182-2.372c-0.016-1.022-0.057-1.874-0.132-2.683q-0.5-5.971-0.962-11.812l-0.019-0.249 0.947-0.252 0.028 0.358q0.478 5.978 1 12.1a26.424 26.424 0 0 1 0.105 3.029 12.127 12.127 0 0 1-0.311 2.621 5.43 5.43 0 0 1-0.872 1.975 2.849 2.849 0 0 1-1.633 1.082 2.7 2.7 0 0 1-0.651 0.092z"/><path d="m474.29 415.24q0.855 9.091 1.882 18.594l-0.307 0.184q-1.006-9.49-1.874-18.6-0.954 0.558-1.947 1.077c-0.017-0.173-0.032-0.351-0.046-0.525a41.448 41.448 0 0 0 4.089-2.436c0.017 0.182 0.033 0.361 0.054 0.545-0.6 0.4-1.219 0.786-1.851 1.159"/><path d="m475.61 434.52-0.049-0.467c-0.759-7.162-1.343-12.942-1.832-18.136-0.5 0.288-1.024 0.572-1.552 0.849l-0.395 0.207-0.043-0.445c-0.016-0.175-0.032-0.353-0.046-0.53l-0.015-0.2 0.175-0.092a41.249 41.249 0 0 0 4.059-2.419l0.422-0.286 0.046 0.507c0.016 0.181 0.032 0.357 0.054 0.538l0.021 0.183-0.153 0.1c-0.534 0.357-1.093 0.708-1.7 1.07 0.509 5.413 1.119 11.435 1.863 18.4l0.02 0.19z"/></g><path d="m367.27 189.5c0.477-1.708-1.836-3.242-5.023-3.462s-5.811 0.676-6.021 2.072c-2.153 16-21.037 43.647-34.333 65.029a3.932 3.932 0 0 0 1.617 5.548 4.167 4.167 0 0 0 5.577-1.735c13.015-21.223 33.635-48.674 38.183-67.452" fill="#fff"/><path d="m344.74 196.18c0.338-1.049-1.533-2.123-4.14-2.346s-4.736 0.271-4.858 1.083c-1.352 9.324-12.05 25.313-19.964 37.9-0.722 1.2 0.176 2.83 1.835 3.692s3.4 0.635 4.1-0.553c7.727-12.454 19.781-28.323 23.023-39.771" fill="#fff"/><g fill="#171c21"><path d="m253.92 394.16a1 1 0 1 0 7e-3 -1.419 1 1 0 0 0-7e-3 1.419"/><path d="m254.63 394.56h-7e-3a1.09 1.09 0 0 1-0.773-0.327 1.1 1.1 0 0 1 0.781-1.877h7e-3a1.1 1.1 0 0 1-8e-3 2.2zm-0.637-0.467a0.881 0.881 0 0 0 0.631 0.266h6e-3a0.9 0.9 0 0 0 0.636-0.262 0.883 0.883 0 0 0 0.267-0.633 0.9 0.9 0 0 0-0.9-0.908h-6e-3a0.9 0.9 0 0 0-0.633 0.259 0.906 0.906 0 0 0 0 1.278z"/><path d="m255.51 389.68a1 1 0 1 0-0.7-1.231 1 1 0 0 0 0.7 1.231"/><path d="m255.78 389.81a1.088 1.088 0 0 1-0.293-0.039 1.1 1.1 0 1 1 1.253-1.6 1.1 1.1 0 0 1-0.96 1.639zm0-2a0.9 0.9 0 0 0-0.238 1.77 0.9 0.9 0 0 0 0.688-0.088 0.9 0.9 0 0 0 0.338-1.221 0.9 0.9 0 0 0-0.551-0.429 0.841 0.841 0 0 0-0.239-0.034z"/><path d="m254.14 383.06a1 1 0 1 0 1.221 0.713 1 1 0 0 0-1.221-0.713"/><path d="m254.39 385.13a1.094 1.094 0 0 1-0.557-0.153 1.076 1.076 0 0 1-0.5-0.667 1.1 1.1 0 0 1 0.788-1.347 1.1007 1.1007 0 1 1 0.552 2.131 1.12 1.12 0 0 1-0.283 0.036zm-0.222-1.974a0.9 0.9 0 0 0-0.645 1.1 0.9 0.9 0 0 0 1.1 0.64 0.90081 0.90081 0 1 0-0.452-1.744z"/><path d="m251.57 379.97a1 1 0 1 0-8e-3 1.417 1 1 0 0 0 8e-3 -1.417"/><path d="m250.86 381.77a1.107 1.107 0 0 1-0.785-0.327 1.1 1.1 0 0 1 0.781-1.876h9e-3a1.092 1.092 0 0 1 0.776 0.33 1.1 1.1 0 0 1-0.781 1.873zm0-2a0.9 0.9 0 0 0-0.639 1.535 0.90052 0.90052 0 1 0 1.282-1.265 0.892 0.892 0 0 0-0.636-0.27z"/><path d="m245.85 380.49a1 1 0 1 0-0.7-1.231 1 1 0 0 0 0.7 1.231"/><path d="m246.12 380.63a1.1 1.1 0 1 1 0.287-2.167 1.1 1.1 0 0 1 0.25 2.024 1.083 1.083 0 0 1-0.537 0.143zm0-2a0.9 0.9 0 0 0-0.244 1.771 0.879 0.879 0 0 0 0.681-0.082 0.9 0.9 0 0 0 0.428-0.548 0.9 0.9 0 0 0-0.866-1.141z"/><path d="m241.18 379.94a1 1 0 1 0 1.222 0.715 1 1 0 0 0-1.222-0.715"/><path d="m241.43 382.01a1.1 1.1 0 0 1-0.274-2.169 1.1015 1.1015 0 1 1 0.555 2.132 1.124 1.124 0 0 1-0.281 0.037zm0-2.005a0.93 0.93 0 0 0-0.227 0.029 0.894 0.894 0 0 0-0.643 1.1 0.9 0.9 0 1 0 0.87-1.126z"/><path d="m238.78 383.74a1 1 0 1 0-0.01 1.417 1 1 0 0 0 0.01-1.417"/><path d="m238.07 385.54a1.1 1.1 0 0 1-0.781-0.322 1.1 1.1 0 0 1 0.787-1.881h0.011a1.086 1.086 0 0 1 0.769 0.328 1.1 1.1 0 0 1-0.786 1.875zm6e-3 -2a0.9 0.9 0 1 0 0.637 0.269 0.881 0.881 0 0 0-0.628-0.269z"/><path d="m237.19 388.22a1.0023 1.0023 0 1 0-0.531 1.933 1.0023 1.0023 0 0 0 0.531-1.933"/><path d="m236.93 390.29a1.159 1.159 0 0 1-0.3-0.04 1.103 1.103 0 1 1 0.585-2.127 1.1 1.1 0 0 1 0.249 2.024 1.084 1.084 0 0 1-0.534 0.143zm0-2.006a0.9 0.9 0 0 0-0.241 1.773 0.888 0.888 0 0 0 0.682-0.083 0.9 0.9 0 0 0-0.2-1.658 0.926 0.926 0 0 0-0.242-0.032z"/><path d="m238.56 394.84a1 1 0 1 0-1.223-0.716 1 1 0 0 0 1.223 0.716"/><path d="m238.31 394.97a1.1 1.1 0 0 1-0.279-2.169 1.088 1.088 0 0 1 0.841 0.118 1.11 1.11 0 0 1 0.388 1.5 1.1 1.1 0 0 1-0.673 0.514 1.1 1.1 0 0 1-0.277 0.037zm0-2.005a0.948 0.948 0 0 0-0.23 0.029 0.90216 0.90216 0 1 0 0.455 1.746 0.9 0.9 0 0 0 0.55-0.42 0.885 0.885 0 0 0 0.09-0.68 0.875 0.875 0 0 0-0.407-0.549 0.89 0.89 0 0 0-0.456-0.126z"/><path d="m241.13 397.93a1 1 0 1 0 0.01-1.418 1 1 0 0 0-0.01 1.418"/><path d="m241.84 398.33h-9e-3a1.094 1.094 0 0 1-0.773-0.327 1.1 1.1 0 1 1 0.782 0.327zm0-2a0.9 0.9 0 0 0-0.642 1.535 0.89 0.89 0 0 0 0.632 0.268h7e-3a0.9 0.9 0 1 0 0-1.8z"/><path d="m246.86 397.41a1 1 0 1 0 0.7 1.228 1 1 0 0 0-0.7-1.228"/><path d="m246.58 399.48a1.1 1.1 0 0 1-0.282-0.038 1.113 1.113 0 0 1-0.774-1.356 1.1 1.1 0 0 1 2.02-0.256 1.084 1.084 0 0 1 0.105 0.837 1.111 1.111 0 0 1-1.069 0.813zm0-2a0.9 0.9 0 0 0-0.867 0.662 0.90197 0.90197 0 1 0 1.74 0.476 0.9 0.9 0 0 0-0.086-0.685 0.887 0.887 0 0 0-0.542-0.419 0.887 0.887 0 0 0-0.241-0.038z"/><path d="m251.52 397.96a1 1 0 1 0-1.222-0.714 1 1 0 0 0 1.222 0.714"/><path d="m251.27 398.09a1.1 1.1 0 0 1-0.95-1.658 1.1 1.1 0 1 1 1.227 1.623 1.1 1.1 0 0 1-0.277 0.035zm7e-3 -2a0.927 0.927 0 0 0-0.233 0.031 0.9 0.9 0 0 0-0.647 1.1 0.906 0.906 0 0 0 1.1 0.642 0.9 0.9 0 0 0 0.641-1.1 0.891 0.891 0 0 0-0.861-0.673z"/><path d="m259.4 395.31a1.176 1.176 0 1 0-0.013 1.664 1.179 1.179 0 0 0 0.013-1.664"/><path d="m258.56 397.41a1.273 1.273 0 1 1 0.906-2.17 1.273 1.273 0 0 1-0.907 2.169zm0-2.343a1.074 1.074 0 0 0-0.764 1.829 1.076 1.076 0 1 0 0.764-1.829z"/><path d="m260.21 390.2a1.172 1.172 0 1 0-0.825-1.444 1.175 1.175 0 0 0 0.825 1.444"/><path d="m260.52 390.34a1.285 1.285 0 0 1-0.334-0.045 1.28 1.28 0 0 1-0.9-1.568 1.2755 1.2755 0 0 1 2.46 0.675 1.278 1.278 0 0 1-1.226 0.938zm-0.282-0.239a1.075 1.075 0 0 0 1.217-1.569 1.058 1.058 0 0 0-0.649-0.5 1.077 1.077 0 0 0-1.323 0.747 1.081 1.081 0 0 0 0.755 1.321z"/><path d="m257.55 382.27a1.173 1.173 0 1 0 0.838-1.433 1.169 1.169 0 0 0-0.838 1.433"/><path d="m258.68 383.25a1.254 1.254 0 0 1-0.639-0.175 1.276 1.276 0 0 1 0.321-2.334 1.274 1.274 0 0 1 0.642 2.463 1.3 1.3 0 0 1-0.324 0.046zm0-2.35a1.033 1.033 0 0 0-0.268 0.035 1.072 1.072 0 0 0-0.766 1.31 1.069 1.069 0 0 0 1.308 0.769 1.074 1.074 0 0 0-0.274-2.114z"/><path d="m252.71 377.57a1.173 1.173 0 1 0 8e-3 -1.657 1.168 1.168 0 0 0-8e-3 1.657"/><path d="m253.54 378.02a1.265 1.265 0 0 1-0.9-0.378 1.275 1.275 0 0 1 0.907-2.17h7e-3a1.274 1.274 0 0 1-9e-3 2.548zm0-2.348a1.073 1.073 0 0 0-0.765 1.829 1.065 1.065 0 0 0 0.758 0.318 1.074 1.074 0 0 0 8e-3 -2.147z"/><path d="m246.78 373.65a1.173 1.173 0 1 0 0.82 1.44 1.179 1.179 0 0 0-0.82-1.44"/><path d="m246.48 376.06a1.274 1.274 0 1 1 0.335-2.5 1.274 1.274 0 0 1-0.336 2.5zm0-2.348a1.073 1.073 0 0 0-0.288 2.108 1.072 1.072 0 0 0 1.32-0.753 1.076 1.076 0 0 0-0.75-1.316 1.059 1.059 0 0 0-0.282-0.039z"/><path d="m238.24 376.92a1.173 1.173 0 1 0 0.839-1.431 1.175 1.175 0 0 0-0.839 1.431"/><path d="m239.38 377.9a1.275 1.275 0 0 1-1.232-0.952 1.273 1.273 0 1 1 2.462-0.645 1.279 1.279 0 0 1-0.91 1.556 1.306 1.306 0 0 1-0.32 0.041zm-1.039-1a1.075 1.075 0 1 0 0.768-1.31 1.071 1.071 0 0 0-0.768 1.31z"/><path d="m233.31 382.59a1.174 1.174 0 1 0 0.011-1.662 1.173 1.173 0 0 0-0.011 1.662"/><path d="m234.14 383.03a1.265 1.265 0 0 1-0.9-0.376 1.274 1.274 0 0 1 0.907-2.17h8e-3a1.274 1.274 0 0 1 0.885 2.181 1.276 1.276 0 0 1-0.9 0.365zm-0.762-0.516a1.075 1.075 0 0 0 1.517 8e-3 1.073 1.073 0 1 0-1.826-0.771 1.071 1.071 0 0 0 0.309 0.763z"/><path d="m232.5 387.7a1.173 1.173 0 1 0 0.821 1.442 1.167 1.167 0 0 0-0.821-1.442"/><path d="m232.19 390.1a1.275 1.275 0 0 1-1.11-0.65 1.278 1.278 0 0 1 0.477-1.73 1.268 1.268 0 0 1 0.971-0.122 1.274 1.274 0 0 1-0.338 2.5zm0-2.349a1.074 1.074 0 0 0-0.281 2.109 1.073 1.073 0 1 0 0.57-2.069 1.106 1.106 0 0 0-0.293-0.039z"/><path d="m235.16 395.63a1.175 1.175 0 1 0-0.843 1.43 1.171 1.171 0 0 0 0.843-1.43"/><path d="m234.03 397.2a1.274 1.274 0 0 1-0.326-2.507 1.25 1.25 0 0 1 0.961 0.129 1.272 1.272 0 0 1 0.593 0.785 1.28 1.28 0 0 1-0.914 1.553 1.213 1.213 0 0 1-0.314 0.04zm0-2.349a1.039 1.039 0 0 0-0.275 0.036 1.069 1.069 0 1 0 0.809 0.108 1.057 1.057 0 0 0-0.534-0.144z"/><path d="m240 400.34a1.173 1.173 0 1 0-9e-3 1.659 1.172 1.172 0 0 0 9e-3 -1.659"/><path d="m239.16 402.43a1.273 1.273 0 1 1 0.9-2.165 1.27 1.27 0 0 1-0.9 2.165zm0-2.345a1.058 1.058 0 0 0-0.751 0.309 1.076 1.076 0 1 0 1.518 0.011 1.071 1.071 0 0 0-0.757-0.32z"/><path d="m245.92 404.24a1.172 1.172 0 1 0-0.82-1.44 1.173 1.173 0 0 0 0.82 1.44"/><path d="m246.23 404.38a1.277 1.277 0 0 1-0.334-0.044 1.2721 1.2721 0 1 1 0.675-2.453 1.267 1.267 0 0 1 0.891 1.563 1.276 1.276 0 0 1-1.232 0.934zm-0.282-0.238a1.075 1.075 0 0 0 1.219-1.567 1.061 1.061 0 0 0-0.648-0.5 1.072 1.072 0 1 0-0.571 2.066z"/><path d="m254.47 400.98a1.173 1.173 0 1 0-0.84 1.432 1.175 1.175 0 0 0 0.84-1.432"/><path d="m253.33 402.55a1.277 1.277 0 0 1-1.231-0.954 1.28 1.28 0 0 1 0.91-1.554 1.274 1.274 0 1 1 0.321 2.508zm0-2.35a1.075 1.075 0 0 0-1.039 1.345 1.074 1.074 0 0 0 1.309 0.769 1.07 1.07 0 0 0 0.768-1.309 1.078 1.078 0 0 0-1.038-0.805z"/><path d="m260.58 401.51a1.513 1.513 0 1 0 0.012-2.141 1.511 1.511 0 0 0-0.012 2.141"/><path d="m261.65 402.06a1.609 1.609 0 0 1-1.144-0.475 1.616 1.616 0 0 1 0.012-2.283 1.6 1.6 0 0 1 1.132-0.466h0.011a1.612 1.612 0 0 1-0.011 3.224zm-1-0.616a1.416 1.416 0 0 0 2 8e-3 1.407 1.407 0 0 0 0.012-1.994 1.406 1.406 0 0 0-1-0.422h-0.01a1.4 1.4 0 0 0-0.991 0.408 1.416 1.416 0 0 0-0.012 2z"/><path d="m266.81 391.65a1.513 1.513 0 1 0-1.862 1.062 1.514 1.514 0 0 0 1.862-1.062"/><path d="m265.35 392.87a1.637 1.637 0 0 1-0.424-0.056 1.615 1.615 0 1 1 1.984-1.133 1.622 1.622 0 0 1-1.56 1.189zm0-3.028a1.414 1.414 0 0 0-1.23 2.112 1.413 1.413 0 1 0 1.606-2.06 1.358 1.358 0 0 0-0.371-0.052z"/><path d="m265.42 381.06a1.512 1.512 0 1 0-1.082 1.846 1.516 1.516 0 0 0 1.082-1.846"/><path d="m263.95 383.06a1.614 1.614 0 0 1-1.388-2.422 1.613 1.613 0 0 1 2.955 0.4 1.61 1.61 0 0 1-0.17 1.225 1.593 1.593 0 0 1-0.984 0.744 1.621 1.621 0 0 1-0.413 0.053zm0-3.025a1.4 1.4 0 0 0-0.355 0.046 1.411 1.411 0 0 0-1.008 1.724 1.411 1.411 0 0 0 2.583 0.355 1.41 1.41 0 0 0 0.15-1.072 1.423 1.423 0 0 0-1.366-1.053z"/><path d="m256.77 374.71a1.512 1.512 0 1 0 0.015-2.141 1.514 1.514 0 0 0-0.015 2.141"/><path d="m257.85 375.26a1.613 1.613 0 0 1-1.149-0.478 1.62 1.62 0 1 1 1.149 0.478zm-1.007-0.619a1.412 1.412 0 1 0 0.014-2 1.421 1.421 0 0 0-0.014 2z"/><path d="m248.25 371.41a1.512 1.512 0 1 0-1.058-1.859 1.517 1.517 0 0 0 1.058 1.859"/><path d="m248.65 371.56a1.6 1.6 0 0 1-0.42-0.056 1.6113 1.6113 0 1 1 0.852-3.108 1.612 1.612 0 0 1 1.13 1.979 1.623 1.623 0 0 1-1.562 1.185zm-0.369-0.249a1.425 1.425 0 0 0 1.738-0.991 1.4131 1.4131 0 0 0-2.726-0.746 1.422 1.422 0 0 0 0.988 1.737z"/><path d="m240.31 370.96a1.513 1.513 0 1 0-1.08 1.85 1.513 1.513 0 0 0 1.08-1.85"/><path d="m238.85 372.96a1.623 1.623 0 0 1-1.568-1.206 1.61 1.61 0 0 1 1.151-1.967 1.614 1.614 0 0 1 1.968 1.15 1.625 1.625 0 0 1-1.151 1.973 1.66 1.66 0 0 1-0.4 0.05zm-8e-3 -3.026a1.411 1.411 0 0 0-1.367 1.769 1.4125 1.4125 0 1 0 2.733-0.715 1.416 1.416 0 0 0-1.366-1.054z"/><path d="m232.12 376.39a1.514 1.514 0 1 0-0.014 2.137 1.516 1.516 0 0 0 0.014-2.137"/><path d="m231.04 379.06a1.612 1.612 0 1 1 1.149-2.744 1.615 1.615 0 0 1-0.014 2.28 1.615 1.615 0 0 1-1.135 0.464zm0-3.022a1.412 1.412 0 1 0 0.994 2.415 1.412 1.412 0 0 0 0.012-2 1.411 1.411 0 0 0-1.006-0.415z"/><path d="m227.75 385.19a1.512 1.512 0 1 0 1.06 1.857 1.512 1.512 0 0 0-1.06-1.857"/><path d="m227.35 388.26a1.614 1.614 0 0 1-1.556-2.038 1.611 1.611 0 0 1 1.984-1.128 1.611 1.611 0 0 1-0.428 3.166zm0-3.025a1.419 1.419 0 1 0 0.379 0.052 1.408 1.408 0 0 0-0.383-0.052z"/><path d="m230.21 396.07a1.513 1.513 0 1 0-1.082 1.847 1.51 1.51 0 0 0 1.082-1.847"/><path d="m228.74 398.07a1.613 1.613 0 1 1 1.563-2.022 1.615 1.615 0 0 1-1.153 1.969 1.591 1.591 0 0 1-0.41 0.053zm0.01-3.026a1.433 1.433 0 0 0-0.366 0.049 1.4112 1.4112 0 0 0 0.716 2.73 1.415 1.415 0 0 0 1.01-1.724 1.409 1.409 0 0 0-1.36-1.055z"/><path d="m235.93 403.19a1.513 1.513 0 1 0-0.017 2.137 1.513 1.513 0 0 0 0.017-2.137"/><path d="m234.86 405.87h-0.01a1.6 1.6 0 0 1-1.137-0.477 1.612 1.612 0 0 1 1.15-2.746h0.014a1.61 1.61 0 0 1 1.595 1.615 1.613 1.613 0 0 1-1.612 1.608zm0-3.023a1.406 1.406 0 0 0-1 0.408 1.422 1.422 0 0 0-0.011 2 1.4 1.4 0 0 0 1 0.419h9e-3a1.413 1.413 0 0 0 1.007-2.4 1.387 1.387 0 0 0-0.99-0.421z"/><path d="m244.45 406.49a1.513 1.513 0 1 0 1.057 1.86 1.506 1.506 0 0 0-1.057-1.86"/><path d="m244.05 409.56a1.64 1.64 0 0 1-0.432-0.058 1.617 1.617 0 0 1-1.125-1.984 1.587 1.587 0 0 1 0.753-0.973 1.606 1.606 0 0 1 1.224-0.153 1.617 1.617 0 0 1 1.126 1.983 1.608 1.608 0 0 1-1.547 1.185zm-0.01-3.027a1.41 1.41 0 0 0-1.355 1.038 1.416 1.416 0 0 0 0.987 1.737 1.388 1.388 0 0 0 1.069-0.131 1.4 1.4 0 0 0 0.663-0.855 1.417 1.417 0 0 0-0.987-1.737 1.393 1.393 0 0 0-0.377-0.052z"/><path d="m254.24 408.02a1.513 1.513 0 1 0-1.846-1.078 1.511 1.511 0 0 0 1.846 1.078"/><path d="m253.86 408.17a1.616 1.616 0 1 1 0.412-0.054 1.607 1.607 0 0 1-0.412 0.054zm0-3.024a1.459 1.459 0 0 0-0.351 0.043 1.42 1.42 0 0 0-1.009 1.728 1.414 1.414 0 0 0 1.724 1.006 1.412 1.412 0 0 0-0.364-2.777z"/><path d="m264.75 405.07a1.763 1.763 0 1 0-0.014 2.492 1.767 1.767 0 0 0 0.014-2.492"/><path d="m263.5 408.17a1.867 1.867 0 0 1-1.329-0.553 1.86 1.86 0 0 1 0.017-2.634 1.873 1.873 0 0 1 2.634 0.019 1.858 1.858 0 0 1-1.322 3.168zm0-3.519a1.661 1.661 0 1 0 1.185 0.492 1.667 1.667 0 0 0-1.185-0.492z"/><path d="m269.41 397.11a1.764 1.764 0 1 0-1.234-2.167 1.761 1.761 0 0 0 1.234 2.167"/><path d="m269.88 397.27a1.874 1.874 0 0 1-0.5-0.066 1.88 1.88 0 0 1-1.3-2.29 1.863 1.863 0 1 1 1.8 2.356zm-0.443-0.259a1.664 1.664 0 1 0-1.164-2.045 1.68 1.68 0 0 0 1.164 2.045z"/><path d="m268.25 383.22a1.762 1.762 0 1 0 1.259-2.15 1.766 1.766 0 0 0-1.259 2.15"/><path d="m269.96 384.64a1.87 1.87 0 0 1-1.805-1.395 1.86 1.86 0 0 1 1.331-2.271 1.863 1.863 0 0 1 0.942 3.605 1.845 1.845 0 0 1-0.468 0.061zm-8e-3 -3.526a1.707 1.707 0 0 0-0.416 0.053 1.661 1.661 0 0 0-1.187 2.027 1.662 1.662 0 1 0 1.6-2.08z"/><path d="m262.45 373.04a1.764 1.764 0 1 0 0.015-2.5 1.767 1.767 0 0 0-0.015 2.5"/><path d="m263.71 373.66a1.865 1.865 0 0 1-1.325-0.549 1.871 1.871 0 1 1 1.326 0.55zm-1.184-0.691a1.663 1.663 0 1 0 0.015-2.353 1.671 1.671 0 0 0-0.015 2.353z"/><path d="m252.35 367.12a1.762 1.762 0 1 0-1.234-2.168 1.771 1.771 0 0 0 1.234 2.168"/><path d="m252.81 367.28a1.864 1.864 0 0 1-0.487-0.065 1.862 1.862 0 1 1 2.291-1.3 1.877 1.877 0 0 1-1.804 1.365zm-0.434-0.258a1.662 1.662 0 1 0 0.878-3.206 1.662 1.662 0 1 0-0.878 3.206z"/><path d="m238.48 365.79a1.763 1.763 0 1 0 1.259-2.15 1.761 1.761 0 0 0-1.259 2.15"/><path d="m240.18 367.21a1.865 1.865 0 0 1-1.8-1.39 1.858 1.858 0 1 1 1.8 1.39zm-1.607-1.44a1.664 1.664 0 1 0 0.176-1.263 1.662 1.662 0 0 0-0.176 1.263z"/><path d="m230.46 370.35a1.762 1.762 0 1 0-0.014 2.492 1.762 1.762 0 0 0 0.014-2.492"/><path d="m229.21 373.45a1.862 1.862 0 1 1 0-3.723h0.013a1.862 1.862 0 0 1-0.014 3.723zm0-3.523a1.666 1.666 0 1 0 1.181 0.494 1.645 1.645 0 0 0-1.17-0.494z"/><path d="m223.29 380.79a1.763 1.763 0 1 0 1.235 2.17 1.755 1.755 0 0 0-1.235-2.17"/><path d="m222.82 384.35a1.862 1.862 0 0 1-1.793-2.359 1.841 1.841 0 0 1 0.867-1.123 1.87 1.87 0 0 1 1.419-0.18 1.864 1.864 0 0 1-0.493 3.662zm0-3.529a1.657 1.657 0 0 0-1.6 1.223 1.663 1.663 0 1 0 2.041-1.162 1.7 1.7 0 0 0-0.445-0.061z"/><path d="m224.45 394.67a1.762 1.762 0 1 0-1.26 2.15 1.761 1.761 0 0 0 1.26-2.15"/><path d="m222.74 396.98a1.864 1.864 0 1 1 1.81-2.335 1.871 1.871 0 0 1-1.81 2.335zm0.012-3.527a1.7 1.7 0 0 0-0.423 0.055 1.662 1.662 0 1 0 2.028 1.188 1.66 1.66 0 0 0-1.6-1.243z"/><path d="m230.25 404.86a1.761 1.761 0 1 0-0.013 2.491 1.759 1.759 0 0 0 0.013-2.491"/><path d="m228.99 407.96h-0.011a1.836 1.836 0 0 1-1.311-0.554 1.861 1.861 0 1 1 1.322 0.554zm0-3.524a1.66 1.66 0 0 0-1.18 2.83 1.642 1.642 0 0 0 1.169 0.494h0.01a1.664 1.664 0 0 0 1.666-1.654 1.639 1.639 0 0 0-0.481-1.176 1.655 1.655 0 0 0-1.183-0.494z"/><path d="m240.36 410.78a1.763 1.763 0 1 0 1.236 2.166 1.765 1.765 0 0 0-1.236-2.166"/><path d="m239.88 414.34a1.861 1.861 0 0 1-0.91-3.484 1.843 1.843 0 0 1 1.41-0.173 1.861 1.861 0 0 1-0.5 3.657zm0-3.526a1.663 1.663 0 0 0-0.436 3.267 1.662 1.662 0 1 0 0.882-3.2 1.661 1.661 0 0 0-0.445-0.067z"/><path d="m254.23 412.11a1.762 1.762 0 1 0-1.258 2.146 1.757 1.757 0 0 0 1.258-2.146"/><path d="m252.51 414.42a1.864 1.864 0 1 1 1.809-2.331 1.86 1.86 0 0 1-1.33 2.269 1.875 1.875 0 0 1-0.479 0.062zm0.012-3.525a1.666 1.666 0 0 0-1.442 0.824 1.663 1.663 0 1 0 3.045 0.421 1.656 1.656 0 0 0-1.6-1.244z"/><path d="m250.36 392.51c-0.567 0.148-1.1 0.305-1.645 0.424a10.068 10.068 0 0 1-1.254 0.179 1.756 1.756 0 0 1-1.516-0.686 1.127 1.127 0 0 1-0.195-1.209 3.394 3.394 0 0 1-2.246-0.067c-0.221 0.24-0.445 0.488-0.671 0.734a3.256 3.256 0 0 0-0.293 0.334 0.333 0.333 0 0 1-0.446 0.123c-0.49-0.166-1.572-0.489-1.649-0.513 1.975-2.165 3.933-4.319 5.9-6.47 0.534 0.309 1.052 0.618 1.593 0.932-0.318 0.35-3.118 3.438-3.151 3.477a0.537 0.537 0 0 0 0.313 0.92 4.071 4.071 0 0 0 0.864 0.029c0.042 0 0.094-0.057 0.128-0.1q1.569-1.712 3.134-3.439a1.137 1.137 0 0 1 0.086-0.082c0.525 0.31 1.047 0.612 1.584 0.928-0.325 0.355-2.379 2.629-3.093 3.421a1.1 1.1 0 0 0-0.144 0.212 0.428 0.428 0 0 0 0.083 0.573 0.8 0.8 0 0 0 0.565 0.252 5.288 5.288 0 0 0 0.679-0.036 4.4 4.4 0 0 0 0.727-0.13 0.674 0.674 0 0 1 0.652 0.194" fill-rule="evenodd"/><path d="m247.31 393.22a1.889 1.889 0 0 1-1.443-0.727 1.19 1.19 0 0 1-0.264-1.15c-0.057 8e-3 -0.113 0.018-0.169 0.028a3 3 0 0 1-1.91-0.1l-0.3 0.332-0.316 0.346c-0.028 0.031-0.057 0.062-0.086 0.092a2.045 2.045 0 0 0-0.2 0.231 0.427 0.427 0 0 1-0.56 0.161c-0.284-0.1-0.813-0.26-1.575-0.49l-0.223-0.067 0.107-0.117q1.509-1.656 3.009-3.3 1.445-1.586 2.887-3.167l0.054-0.06 0.069 0.04c0.295 0.17 0.584 0.34 0.874 0.511 0.237 0.14 0.476 0.28 0.719 0.421l0.107 0.063-0.083 0.091c-0.328 0.361-3.1 3.417-3.149 3.475a0.526 0.526 0 0 0-0.108 0.487 0.477 0.477 0 0 0 0.368 0.271 2.519 2.519 0 0 0 0.595 0.03h0.245s0.012-0.014 0.051-0.062c0.864-0.943 1.72-1.885 2.578-2.829l0.56-0.616c0.017-0.019 0.038-0.038 0.06-0.058l0.086-0.081 0.065 0.039 0.865 0.508 0.719 0.42 0.106 0.063-0.083 0.091c-0.332 0.362-2.389 2.639-3.093 3.421a0.961 0.961 0 0 0-0.13 0.192 0.33 0.33 0 0 0 0.066 0.454 0.685 0.685 0 0 0 0.494 0.223h0.086a4.816 4.816 0 0 0 0.579-0.032 4.575 4.575 0 0 0 0.714-0.128 0.773 0.773 0 0 1 0.742 0.214l0.154 0.124-0.192 0.049q-0.264 0.069-0.522 0.14c-0.386 0.1-0.751 0.2-1.127 0.284a9.976 9.976 0 0 1-1.267 0.182c-0.055-1e-3 -0.107 1e-3 -0.159 1e-3zm-1.412-2.123-0.058 0.158a1.021 1.021 0 0 0 0.177 1.109 1.653 1.653 0 0 0 1.431 0.652 10.109 10.109 0 0 0 1.242-0.178c0.371-0.081 0.733-0.179 1.117-0.282l0.317-0.085a0.459 0.459 0 0 0-0.394-0.056 4.764 4.764 0 0 1-0.742 0.133 4.822 4.822 0 0 1-0.6 0.034h-0.09a0.889 0.889 0 0 1-0.637-0.28 0.527 0.527 0 0 1-0.1-0.695 1.092 1.092 0 0 1 0.156-0.227c0.658-0.733 2.506-2.777 3.01-3.331l-0.612-0.359-0.8-0.469a0.158 0.158 0 0 0-0.023 0.022l-0.562 0.619q-1.289 1.416-2.574 2.824a0.281 0.281 0 0 1-0.2 0.132h-0.024-0.22a2.592 2.592 0 0 1-0.646-0.035 0.67 0.67 0 0 1-0.511-0.4 0.723 0.723 0 0 1 0.139-0.68c0.037-0.044 2.519-2.782 3.074-3.4l-0.612-0.359c-0.267-0.157-0.533-0.313-0.8-0.47l-2.832 3.108-2.9 3.185c0.72 0.217 1.225 0.374 1.5 0.468 0.166 0.058 0.244 0.038 0.333-0.086a2.021 2.021 0 0 1 0.217-0.255c0.028-0.029 0.056-0.058 0.083-0.089l0.316-0.345c0.119-0.131 0.238-0.261 0.356-0.388l0.052-0.058 0.068 0.037a2.735 2.735 0 0 0 1.852 0.111l0.332-0.054z"/></g></g><g transform="matrix(.5086 0 0 .5086 201.22 142)"><polygon class="cls-1" transform="matrix(.038711 0 0 .038711 -140.86 97.562)" points="669.34 180.57 512 271.41 669.34 362.25" fill="#4695eb"/><polygon class="cls-2" transform="matrix(.038711 0 0 .038711 -140.86 97.562)" points="354.66 180.57 354.66 362.25 512 271.41" fill="#ff004a"/><polygon class="cls-3" transform="matrix(.038711 0 0 .038711 -140.86 97.562)" points="512 453.09 669.34 362.25 512 271.41 354.66 362.25" fill="#091313"/><polygon class="cls-1" transform="matrix(.038711 0 0 .038711 -140.86 97.562)" points="188.76 467.93 346.1 558.76 346.1 377.09" fill="#4695eb"/><polygon class="cls-2" transform="matrix(.038711 0 0 .038711 -140.86 97.562)" points="346.1 740.44 503.43 649.6 346.1 558.76" fill="#ff004a"/><polygon class="cls-3" transform="matrix(.038711 0 0 .038711 -140.86 97.562)" points="503.43 467.93 346.1 377.09 346.1 558.76 503.43 649.6" fill="#091313"/><polygon class="cls-1" transform="matrix(.038711 0 0 .038711 -140.86 97.562)" points="677.9 740.44 677.9 558.76 520.57 649.6" fill="#4695eb"/><polygon class="cls-2" transform="matrix(.038711 0 0 .038711 -140.86 97.562)" points="835.24 467.93 677.9 377.09 677.9 558.76" fill="#ff004a"/><polygon class="cls-3" transform="matrix(.038711 0 0 .038711 -140.86 97.562)" points="520.57 467.93 520.57 649.6 677.9 558.76 677.9 377.09" fill="#091313"/><path class="cls-1" d="m-107.83 97.6h-26.438c-3.6094 0-6.5627 2.9533-6.5627 6.5627v26.438c0 3.6094 2.9533 6.5627 6.5627 6.5627h18.105l-4.8865-11.869-3.5452 7.4949h-9.6736c-1.1857 0-2.1884-1.0026-2.1884-2.1884v-26.438c0-1.1857 1.0026-2.1884 2.1884-2.1884h26.438c1.1857 0 2.1884 1.0026 2.1884 2.1884v26.438c0 1.1857-1.0026 2.1884-2.1884 2.1884h-5.7366l1.8008 4.3744h3.9358c3.6094 0 6.5627-2.9533 6.5627-6.5627v-26.438c0-3.6094-2.9533-6.5627-6.5627-6.5627z" fill="#4695eb" stroke-width=".038711"/></g><text x="129.62004" y="215.96819" fill="#ff004a" font-family="sans-serif" font-size="3.5278px" font-weight="bold" stroke-width=".26458" style="line-height:1.25" xml:space="preserve"><tspan x="129.62004" y="215.96819" fill="#ff004a" font-family="sans-serif" font-weight="bold" stroke-width=".26458">northwind</tspan></text><g transform="translate(39.548 .58833)"><path d="m99.636 153.78c-5.0054 0-9.0595 2.0271-9.0595 4.5298 0 2.5027 4.0541 4.5298 9.0595 4.5298 5.0054 0 9.0595-2.027 9.0595-4.5298 0-2.5027-4.0542-4.5298-9.0595-4.5298m-9.0595 6.7947v3.3973c0 2.5027 4.0541 4.5298 9.0595 4.5298 5.0054 0 9.0595-2.0271 9.0595-4.5298v-3.3973c0 2.5027-4.0542 4.5298-9.0595 4.5298-5.0054 0-9.0595-2.0271-9.0595-4.5298m0 5.6622v3.3973c0 2.5027 4.0541 4.5298 9.0595 4.5298 5.0054 0 9.0595-2.0271 9.0595-4.5298v-3.3973c0 2.5027-4.0542 4.5298-9.0595 4.5298-5.0054 0-9.0595-2.0271-9.0595-4.5298z" fill="#0a59b0" stroke-width="1.1324"/><g transform="matrix(.040617 0 0 .03769 93.524 158.4)" fill="#9db3d5" stroke="#4169e1"><g fill="#9db3d5" stroke-linecap="round" stroke-width="12.465"><g stroke-linejoin="round"><path d="m402.4 271.23c-50.302 10.376-53.76-6.655-53.76-6.655 53.111-78.808 75.313-178.84 56.153-203.33-52.27-66.785-142.75-35.2-144.26-34.38l-0.486 0.087c-9.938-2.063-21.06-3.292-33.56-3.496-22.761-0.373-40.026 5.967-53.127 15.902 0 0-161.41-66.495-153.9 83.63 1.597 31.938 45.776 241.66 98.471 178.31 19.26-23.163 37.869-42.748 37.869-42.748 9.243 6.14 20.308 9.272 31.908 8.147l0.901-0.765c-0.28 2.876-0.152 5.689 0.361 9.019-13.575 15.167-9.586 17.83-36.723 23.416-27.459 5.659-11.328 15.734-0.796 18.367 12.768 3.193 42.307 7.716 62.266-20.224l-0.796 3.188c5.319 4.26 9.054 27.711 8.428 48.969-0.626 21.259-1.044 35.854 3.147 47.254s8.368 37.05 44.042 29.406c29.809-6.388 45.256-22.942 47.405-50.555 1.525-19.631 4.976-16.729 5.194-34.28l2.768-8.309c3.192-26.611 0.507-35.196 18.872-31.203l4.463 0.392c13.517 0.615 31.208-2.174 41.591-7 22.358-10.376 35.618-27.7 13.573-23.148z"/><path d="m215.87 286.48c-1.385 49.516 0.348 99.377 5.193 111.5 4.848 12.118 15.223 35.688 50.9 28.045 29.806-6.39 40.651-18.756 45.357-46.051 3.466-20.082 10.148-75.854 11.005-87.281"/><path d="m173.1 38.256s-161.52-66.016-154.01 84.109c1.597 31.938 45.779 241.66 98.473 178.32 19.256-23.166 36.671-41.335 36.671-41.335"/><path d="m260.35 26.207c-5.591 1.753 89.848-34.889 144.09 34.417 19.159 24.484-3.043 124.52-56.153 203.33"/></g><path d="m348.28 263.95s3.461 17.036 53.764 6.653c22.04-4.552 8.776 12.774-13.577 23.155-18.345 8.514-59.474 10.696-60.146-1.069-1.729-30.355 21.647-21.133 19.96-28.739-1.525-6.85-11.979-13.573-18.894-30.338-6.037-14.633-82.796-126.85 21.287-110.18 3.813-0.789-27.146-99.002-124.55-100.6-97.385-1.597-94.19 119.76-94.19 119.76" stroke-linejoin="bevel"/><path d="m188.6 274.33c-13.577 15.166-9.584 17.829-36.723 23.417-27.459 5.66-11.326 15.733-0.797 18.365 12.768 3.195 42.307 7.718 62.266-20.229 6.078-8.509-0.036-22.086-8.385-25.547-4.034-1.671-9.428-3.765-16.361 3.994z" stroke-linejoin="round"/><path d="m187.72 274.07c-1.368-8.917 2.93-19.528 7.536-31.942 6.922-18.626 22.893-37.255 10.117-96.339-9.523-44.029-73.396-9.163-73.436-3.193-0.039 5.968 2.889 30.26-1.067 58.548-5.162 36.913 23.488 68.132 56.479 64.938" stroke-linejoin="round"/></g><path d="m172.52 141.7c-0.288 2.039 3.733 7.48 8.976 8.207 5.234 0.73 9.714-3.522 9.998-5.559 0.284-2.039-3.732-4.285-8.977-5.015-5.237-0.731-9.719 0.333-9.996 2.367z" fill="#5c5cf2" stroke-width="4.155"/><path d="m331.94 137.54c0.284 2.039-3.732 7.48-8.976 8.207-5.238 0.73-9.718-3.522-10.005-5.559-0.277-2.039 3.74-4.285 8.979-5.015s9.718 0.333 10.002 2.368z" fill="#5c5cf2" stroke-width="4.1678"/><path d="m350.68 123.43c0.863 15.994-3.445 26.888-3.988 43.914-0.804 24.748 11.799 53.074-7.191 81.435" fill="#9db3d5" stroke-linecap="round" stroke-linejoin="round" stroke-width="12.465"/></g></g><text x="126.71626" y="152.50591" fill="#0a59b0" font-family="sans-serif" font-size="3.5278px" font-weight="bold" stroke-width=".26458" style="line-height:1.25" xml:space="preserve"><tspan x="126.71626" y="152.50591" fill="#0a59b0" font-family="sans-serif" font-weight="bold" stroke-width=".26458">northwind-db</tspan></text><path d="m262.29 162.58h-3.9665a0.36071 0.36071 0 0 1-0.36056-0.36052v-4.1338c0-0.30613-0.24823-0.55443-0.55421-0.55443h-1.416c-0.30616 0-0.55425 0.2483-0.55425 0.55443v4.1088c0 0.21317-0.17233 0.38644-0.38551 0.38737l-1.2999 6e-3c-0.215 2e-3 -0.38966-0.17328-0.38924-0.38808l8e-3 -4.1134c6.6e-4 -0.30658-0.24761-0.55537-0.55421-0.55537h-1.4148c-0.30622 0-0.55426 0.24832-0.55426 0.55444v11.575c0 0.27195 0.2203 0.49226 0.49202 0.49226h10.949c0.27195 0 0.49225-0.22031 0.49225-0.49226v-6.5887c0-0.27195-0.2203-0.49226-0.49225-0.49226zm-1.86 4.3461c0 0.35637-0.28892 0.64533-0.64529 0.64533h-1.119c-0.35642 0-0.64533-0.28896-0.64533-0.64533v-1.119c0-0.35643 0.28891-0.64534 0.64533-0.64534h1.119c0.35637 0 0.64529 0.28891 0.64529 0.64534z" fill="#f60" stroke-width=".046615"/><rect x="184.65" y="155.07" width="81.774" height="68.14" ry="10.395" fill="none" stroke="#f60" stroke-dasharray="1.642, 1.642" stroke-linejoin="round" stroke-miterlimit="110.7" stroke-width=".821" style="paint-order:normal"/><text x="214.92871" y="152.48189" fill="#ff6600" font-family="sans-serif" font-size="3.5278px" font-weight="bold" stroke-width=".26458" style="line-height:1.25" xml:space="preserve"><tspan x="214.92871" y="152.48189" fill="#ff6600" font-family="sans-serif" font-weight="bold" stroke-width=".26458">rabbitmq</tspan></text><rect x="105.59" y="141.52" width="181.63" height="126.53" rx="12.776" ry="16.746" fill="none" stroke="#326ce5" stroke-dasharray="1.64199, 1.64199" stroke-linejoin="round" stroke-miterlimit="110.7" stroke-width=".821" style="paint-order:normal"/><g transform="matrix(.025839 0 0 .025839 270.13 134.86)"><path d="m365.31 184.81a46.725 46.342 0 0 0-17.906 4.5312l-244.34 116.75a46.725 46.342 0 0 0-25.281 31.438l-60.281 262.25a46.725 46.342 0 0 0 6.3438 35.531 46.725 46.342 0 0 0 2.6562 3.6875l169.12 210.28a46.725 46.342 0 0 0 36.531 17.438l271.22-0.0625a46.725 46.342 0 0 0 36.531-17.406l169.06-210.31a46.725 46.342 0 0 0 9.0312-39.219l-60.375-262.25a46.725 46.342 0 0 0-25.281-31.438l-244.38-116.69a46.725 46.342 0 0 0-22.656-4.5312z" fill="#326ce5" stroke-width="0"/><path d="m367.73 274.06c-8.077 8.2e-4 -14.626 7.2759-14.625 16.25 1e-5 0.13773 0.0282 0.26934 0.0312 0.40625-0.0119 1.2194-0.0708 2.6884-0.0312 3.75 0.19262 5.176 1.3209 9.1375 2 13.906 1.2303 10.207 2.2612 18.667 1.625 26.531-0.61869 2.9654-2.8029 5.6774-4.75 7.5625l-0.34375 6.1875c-8.7768 0.72717-17.612 2.0587-26.438 4.0625-37.975 8.6222-70.67 28.183-95.562 54.594-1.6152-1.1019-4.441-3.1291-5.2813-3.75-2.6112 0.35262-5.2502 1.1583-8.6875-0.84375-6.5449-4.4056-12.506-10.487-19.719-17.812-3.305-3.5042-5.6983-6.841-9.625-10.219-0.89172-0.76707-2.2526-1.8046-3.25-2.5938-3.0699-2.4476-6.6907-3.724-10.188-3.8438-4.4959-0.15394-8.8239 1.6038-11.656 5.1562-5.0352 6.3154-3.4231 15.968 3.5938 21.562 0.0712 0.0567 0.14702 0.10078 0.21875 0.15625 0.96422 0.78162 2.145 1.7831 3.0312 2.4375 4.1669 3.0766 7.9732 4.6514 12.125 7.0938 8.747 5.4018 15.998 9.8809 21.75 15.281 2.246 2.3942 2.6386 6.6129 2.9375 8.4375l4.6875 4.1875c-25.093 37.764-36.707 84.409-29.844 131.94l-6.125 1.7812c-1.6143 2.0846-3.8954 5.3647-6.2813 6.3438-7.5251 2.3702-15.994 3.2406-26.219 4.3125-4.8003 0.39915-8.9422 0.16095-14.031 1.125-1.1201 0.21218-2.6807 0.61877-3.9062 0.90625-0.0426 9e-3 -0.0824 0.0216-0.125 0.0312-0.0668 0.0155-0.15456 0.0479-0.21875 0.0625-8.6201 2.0828-14.158 10.006-12.375 17.812 1.7832 7.8083 10.203 12.557 18.875 10.688 0.0626-0.0143 0.1535-0.0167 0.21875-0.0312 0.0979-0.0224 0.18409-0.0699 0.28125-0.0937 1.2088-0.26536 2.7238-0.5606 3.7812-0.84375 5.0033-1.3396 8.6269-3.308 13.125-5.0312 9.6769-3.4708 17.692-6.3702 25.5-7.5 3.2612-0.25542 6.6971 2.0122 8.4062 2.9688l6.375-1.0938c14.67 45.483 45.414 82.245 84.344 105.31l-2.6562 6.375c0.95742 2.4754 2.0134 5.8247 1.3002 8.2693-2.8387 7.3612-7.701 15.131-13.238 23.793-2.6808 4.0019-5.4245 7.1076-7.8438 11.688-0.5789 1.0959-1.3162 2.7793-1.875 3.9375-3.7588 8.0424-1.0016 17.305 6.2188 20.781 7.2658 3.4979 16.284-0.19134 20.188-8.25 6e-3 -0.0114 0.0257-0.0198 0.0312-0.0312 4e-3 -9e-3 -4e-3 -0.0225 0-0.0312 0.55593-1.1426 1.3435-2.6444 1.8125-3.7188 2.0721-4.747 2.7616-8.8151 4.2188-13.406 3.8696-9.7201 5.9957-19.919 11.323-26.274 1.4587-1.7402 3.8368-2.4095 6.3024-3.0696l3.3125-6c33.938 13.027 71.927 16.522 109.88 7.9062 8.657-1.9656 17.014-4.5094 25.094-7.5625 0.93098 1.6513 2.6611 4.8257 3.125 5.625 2.5056 0.81518 5.2404 1.2361 7.4688 4.5312 3.9854 6.809 6.7109 14.864 10.031 24.594 1.4574 4.5911 2.1776 8.6593 4.25 13.406 0.47234 1.082 1.256 2.6049 1.8125 3.75 3.8948 8.0848 12.942 11.787 20.219 8.2812 7.2195-3.4779 9.9797-12.74 6.2188-20.781-0.55889-1.1581-1.3273-2.8416-1.9062-3.9375-2.4195-4.5798-5.1627-7.6545-7.8438-11.656-5.5372-8.6619-10.13-15.858-12.969-23.219-1.1871-3.7966 0.20028-6.1577 1.125-8.625-0.55378-0.63477-1.7388-4.2201-2.4375-5.9062 40.457-23.888 70.299-62.021 84.312-106.06 1.8924 0.29742 5.1815 0.87936 6.25 1.0938 2.1995-1.4507 4.2219-3.3435 8.1875-3.0312 7.8083 1.1294 15.823 4.0297 25.5 7.5 4.4982 1.7231 8.1216 3.7231 13.125 5.0625 1.0575 0.28309 2.5724 0.5472 3.7812 0.8125 0.0972 0.0238 0.1833 0.0714 0.28125 0.0937 0.0653 0.0146 0.15615 0.0169 0.21875 0.0312 8.6724 1.867 17.094-2.8787 18.875-10.688 1.7807-7.807-3.7543-15.732-12.375-17.812-1.2539-0.28513-3.0322-0.76938-4.25-1-5.0891-0.96378-9.2309-0.7261-14.031-1.125-10.225-1.0714-18.694-1.9427-26.219-4.3125-3.0683-1.1903-5.251-4.8412-6.3126-6.3438l-5.9062-1.7188c3.0623-22.154 2.2366-45.211-3.0625-68.281-5.3484-23.285-14.8-44.581-27.406-63.344 1.515-1.3773 4.3762-3.9109 5.1875-4.6562 0.23716-2.6242 0.0334-5.3755 2.75-8.2812 5.7513-5.4007 13.003-9.879 21.75-15.281 4.1517-2.4425 7.9895-4.017 12.156-7.0938 0.94225-0.69576 2.2289-1.7976 3.2188-2.5938 7.0154-5.5963 8.6306-15.248 3.5938-21.562s-14.797-6.9088-21.812-1.3125c-0.99856 0.79085-2.3535 1.8225-3.25 2.5938-3.9265 3.378-6.3514 6.7144-9.6562 10.219-7.2125 7.326-13.174 13.438-19.719 17.844-2.836 1.6511-6.99 1.0798-8.875 0.96875l-5.5625 3.9688c-31.719-33.261-74.905-54.525-121.41-58.656-0.13006-1.9487-0.30045-5.4712-0.34375-6.5312-1.9037-1.8216-4.2034-3.3769-4.7812-7.3125-0.63617-7.8639 0.42597-16.325 1.6562-26.531 0.6791-4.7688 1.8074-8.7302 2-13.906 0.0438-1.1766-0.0265-2.884-0.0312-4.1562-9.6e-4 -8.9741-6.548-16.251-14.625-16.25zm-18.312 113.44-4.3438 76.719-0.3125 0.15625c-0.29134 6.8634-5.94 12.344-12.875 12.344-2.8408 0-5.4629-0.91229-7.5938-2.4688l-0.125 0.0625-62.906-44.594c19.334-19.011 44.063-33.06 72.562-39.531 5.206-1.182 10.41-2.0591 15.594-2.6875zm36.656 0c33.273 4.0923 64.045 19.159 87.625 42.25l-62.5 44.312-0.21875-0.0937c-5.5474 4.0517-13.363 3.0464-17.688-2.375-1.7713-2.221-2.7007-4.8324-2.8125-7.4688l-0.0625-0.0312zm-147.62 70.875 57.438 51.375-0.0625 0.3125c5.1844 4.507 5.9489 12.328 1.625 17.75-1.7712 2.221-4.1421 3.7107-6.6875 4.4062l-0.0625 0.25-73.625 21.25c-3.7473-34.265 4.3286-67.574 21.375-95.344zm258.16 0.0312c8.5341 13.833 14.997 29.282 18.844 46.031 3.8011 16.548 4.755 33.067 3.1875 49.031l-74-21.312-0.0625-0.3125c-6.6265-1.811-10.699-8.5516-9.1562-15.312 0.63203-2.7696 2.1022-5.1126 4.0938-6.8438l-0.0312-0.15625 57.125-51.125zm-140.66 55.312h23.531l14.625 18.281-5.25 22.812-21.125 10.156-21.188-10.188-5.25-22.812zm75.438 62.562c0.99997-0.0505 1.9956 0.0396 2.9688 0.21875l0.125-0.15625 76.156 12.875c-11.146 31.313-32.473 58.44-60.969 76.594l-29.562-71.406 0.0937-0.125c-2.7156-6.31 2e-3 -13.71 6.25-16.719 1.5996-0.77041 3.2709-1.197 4.9375-1.2812zm-127.91 0.3125c5.8117 0.0815 11.025 4.1152 12.375 10.031 0.63219 2.7696 0.3245 5.5138-0.71875 7.9375l0.21875 0.28125-29.25 70.688c-27.347-17.549-49.129-43.824-60.781-76.062l75.5-12.812 0.125 0.15625c0.84451-0.15541 1.701-0.2304 2.5312-0.21875zm63.781 30.969c2.0244-0.0744 4.0786 0.34098 6.0312 1.2812 2.5595 1.2325 4.5367 3.1732 5.7812 5.5h0.28125l37.219 67.25c-4.8303 1.6192-9.7961 3.0031-14.875 4.1562-28.465 6.4629-56.839 4.5047-82.531-4.25l37.125-67.125h0.0625c2.2277-4.1644 6.4525-6.6489 10.906-6.8125z" color="#000000" fill="#fff" stroke="#fff" stroke-width=".25" style="text-decoration-line:none;text-indent:0;text-transform:none"/></g><g transform="matrix(.8479 0 0 .8479 129.33 231.25)" fill="#6db33f"><path d="m23.693 10.706-4.73-8.1844c-0.4094-0.7106-1.4166-1.2942-2.2402-1.2942h-9.4503c-0.819 0-1.8308 0.5836-2.2402 1.2942l-4.7253 8.1844c-0.4095 0.7106-0.4095 1.873 0 2.5837l4.7252 8.189c0.4094 0.7107 1.4166 1.2943 2.2402 1.2943h9.455c0.819 0 1.826-0.5836 2.2402-1.2942l4.7252-8.189c0.4095-0.7107 0.4095-1.8732 0-2.5838zm-12.717-4.9511c0-0.5365 0.4377-0.9742 0.9742-0.9742s0.9742 0.4377 0.9742 0.9742v5.8217c0 0.5366-0.4377 0.9742-0.9742 0.9742s-0.9742-0.4376-0.9742-0.9742zm0.9742 12.429c-3.6427 0-6.6077-2.965-6.6077-6.6077 0.0047-2.0896 0.993-4.0521 2.6685-5.304a0.8657 0.8657 0 0 1 1.2142 0.1788 0.8657 0.8657 0 0 1-0.1788 1.2143c-2.1602 1.6048-2.612 4.6592-1.0072 6.8194 1.6049 2.1603 4.6593 2.612 6.8195 1.0072 1.2378-0.9177 1.9673-2.372 1.9673-3.9157a4.8972 4.8972 0 0 0-1.9861-3.925c-0.386-0.2824-0.466-0.8284-0.1836-1.2143 0.2824-0.386 0.8283-0.466 1.2143-0.1835 1.6895 1.2471 2.6826 3.2238 2.6873 5.3228 0 3.6474-2.965 6.6077-6.6077 6.6077z"/></g><text x="128.5806" y="254.55327" fill="#6db33f" font-family="sans-serif" font-size="3.5278px" font-weight="bold" stroke-width=".26458" style="line-height:1.25" xml:space="preserve"><tspan x="128.5806" y="254.55327" fill="#6db33f" stroke-width=".26458">order-faker</tspan></text><use transform="matrix(1.2207 0 0 1.2207 306.99 208.34)" fill="#000000" xlink:href="#mail"/><text x="222.35379" y="263.49188" font-family="sans-serif" font-size="3.5278px" font-weight="bold" stroke-width=".26458" style="line-height:1.25" xml:space="preserve"><tspan x="222.35379" y="263.49188" stroke-width=".26458">mail</tspan></text><text x="305.96249" y="230.85765" font-family="sans-serif" font-size="3.5278px" font-weight="bold" stroke-width=".26458" style="line-height:1.25" xml:space="preserve"><tspan x="305.96249" y="230.85765" stroke-width=".26458">Mailinator</tspan></text><g transform="matrix(.87335 0 0 .87335 106.4 190.87)" fill="#61dafb"><path d="m14.23 12.004a2.236 2.236 0 0 1-2.235 2.236 2.236 2.236 0 0 1-2.236-2.236 2.236 2.236 0 0 1 2.235-2.236 2.236 2.236 0 0 1 2.236 2.236zm2.648-10.69c-1.346 0-3.107 0.96-4.888 2.622-1.78-1.653-3.542-2.602-4.887-2.602-0.41 0-0.783 0.093-1.106 0.278-1.375 0.793-1.683 3.264-0.973 6.365-3.044 0.94-5.024 2.443-5.024 4.027 0 1.59 1.99 3.097 5.043 4.03-0.704 3.113-0.39 5.588 0.988 6.38 0.32 0.187 0.69 0.275 1.102 0.275 1.345 0 3.107-0.96 4.888-2.624 1.78 1.654 3.542 2.603 4.887 2.603 0.41 0 0.783-0.09 1.106-0.275 1.374-0.792 1.683-3.263 0.973-6.365 3.033-0.932 5.013-2.438 5.013-4.024 0-1.59-1.99-3.097-5.043-4.032 0.704-3.11 0.39-5.587-0.988-6.38-0.318-0.184-0.688-0.277-1.092-0.278zm-5e-3 1.09v6e-3c0.225 0 0.406 0.044 0.558 0.127 0.666 0.382 0.955 1.835 0.73 3.704-0.054 0.46-0.142 0.945-0.25 1.44-0.96-0.236-2.006-0.417-3.107-0.534-0.66-0.905-1.345-1.727-2.035-2.447 1.592-1.48 3.087-2.292 4.105-2.295zm-9.77 0.02c1.012 0 2.514 0.808 4.11 2.28-0.686 0.72-1.37 1.537-2.02 2.442-1.107 0.117-2.154 0.298-3.113 0.538-0.112-0.49-0.195-0.964-0.254-1.42-0.23-1.868 0.054-3.32 0.714-3.707 0.19-0.09 0.4-0.127 0.563-0.132zm4.882 3.05c0.455 0.468 0.91 0.992 1.36 1.564-0.44-0.02-0.89-0.034-1.345-0.034-0.46 0-0.915 0.01-1.36 0.034 0.44-0.572 0.895-1.096 1.345-1.565zm0.015 2.626c0.74 0 1.477 0.034 2.202 0.093 0.406 0.582 0.802 1.203 1.183 1.86 0.372 0.64 0.71 1.29 1.018 1.946-0.308 0.655-0.646 1.31-1.013 1.95-0.38 0.66-0.773 1.288-1.18 1.87-0.728 0.063-1.466 0.098-2.21 0.098-0.74 0-1.477-0.035-2.202-0.093-0.406-0.582-0.802-1.204-1.183-1.86-0.372-0.64-0.71-1.29-1.018-1.946 0.303-0.657 0.646-1.313 1.013-1.954 0.38-0.66 0.773-1.286 1.18-1.868 0.728-0.064 1.466-0.098 2.21-0.098zm-3.635 0.254c-0.24 0.377-0.48 0.763-0.704 1.16-0.225 0.39-0.435 0.782-0.635 1.174-0.265-0.656-0.49-1.31-0.676-1.947 0.64-0.15 1.315-0.283 2.015-0.386zm7.26 0c0.695 0.103 1.365 0.23 2.006 0.387-0.18 0.632-0.405 1.282-0.66 1.933-0.2-0.39-0.41-0.783-0.64-1.174-0.225-0.392-0.465-0.774-0.705-1.146zm3.063 0.675c0.484 0.15 0.944 0.317 1.375 0.498 1.732 0.74 2.852 1.708 2.852 2.476-5e-3 0.768-1.125 1.74-2.857 2.475-0.42 0.18-0.88 0.342-1.355 0.493-0.28-0.958-0.646-1.956-1.1-2.98 0.45-1.017 0.81-2.01 1.085-2.964zm-13.395 4e-3c0.278 0.96 0.645 1.957 1.1 2.98-0.45 1.017-0.812 2.01-1.086 2.964-0.484-0.15-0.944-0.318-1.37-0.5-1.732-0.737-2.852-1.706-2.852-2.474s1.12-1.742 2.852-2.476c0.42-0.18 0.88-0.342 1.356-0.494zm11.678 4.28c0.265 0.657 0.49 1.312 0.676 1.948-0.64 0.157-1.316 0.29-2.016 0.39 0.24-0.375 0.48-0.762 0.705-1.158 0.225-0.39 0.435-0.788 0.636-1.18zm-9.945 0.02c0.2 0.392 0.41 0.783 0.64 1.175 0.23 0.39 0.465 0.772 0.705 1.143-0.695-0.102-1.365-0.23-2.006-0.386 0.18-0.63 0.406-1.282 0.66-1.933zm10.894 2.987c0.112 0.493 0.2 0.968 0.254 1.423 0.23 1.868-0.054 3.32-0.714 3.708-0.147 0.09-0.338 0.128-0.563 0.128-1.012 0-2.514-0.807-4.11-2.28 0.686-0.72 1.37-1.536 2.02-2.44 1.107-0.118 2.154-0.3 3.113-0.54zm-11.83 0.01c0.96 0.234 2.006 0.415 3.107 0.532 0.66 0.905 1.345 1.727 2.035 2.446-1.595 1.483-3.092 2.295-4.11 2.295-0.22-5e-3 -0.406-0.05-0.553-0.132-0.666-0.38-0.955-1.834-0.73-3.703 0.054-0.46 0.142-0.944 0.25-1.438zm4.56 0.64c0.44 0.02 0.89 0.034 1.345 0.034 0.46 0 0.915-0.01 1.36-0.034-0.44 0.572-0.895 1.095-1.345 1.565-0.455-0.47-0.91-0.993-1.36-1.565z"/></g><rect x="209.79" y="161.54" width="31.427" height="9.6323" ry="0" fill="none" stroke="#000" stroke-miterlimit="110.7" stroke-width=".365" style="paint-order:normal"/><text x="216.48306" y="167.52295" font-family="sans-serif" font-size="3.5278px" stroke-width=".26458" style="line-height:1.25" xml:space="preserve"><tspan x="216.48306" y="167.52295" font-family="sans-serif" stroke-width=".26458">mail.send</tspan></text><g fill="none" stroke="#000" stroke-miterlimit="110.7"><rect x="198.19" y="188.22" width="20.998" height="4.9368" stroke-width=".94022" style="paint-order:normal"/><rect x="197.97" y="194.72" width="21.406" height="5.0044" stroke-dasharray="1.30117, 0.650587" stroke-dashoffset=".19518" stroke-width=".65059" style="paint-order:normal"/><rect x="198.04" y="201.15" width="21.406" height="5.0044" stroke-dasharray="1.30117, 0.650587" stroke-dashoffset="2.0819" stroke-width=".65059" style="paint-order:normal"/></g><text x="196.43011" y="213.74895" font-family="sans-serif" font-size="3.5278px" stroke-width=".26458" style="line-height:1.25" xml:space="preserve"><tspan x="196.43011" y="213.74895" font-family="sans-serif" stroke-width=".26458">mail.send.dev</tspan></text><text x="229.28439" y="213.31238" font-family="sans-serif" font-size="3.5278px" stroke-width=".26458" style="line-height:1.25" xml:space="preserve"><tspan x="229.28439" y="213.31238" font-family="sans-serif" stroke-width=".26458">mail.send.prod</tspan></text><g fill="none"><path d="m81.038 243.89" stroke="#000" stroke-width=".26458px"/><g><path d="m239.52 249.17h32.412v-30.283h29.872" marker-end="url(#marker125583)" stroke="#000" stroke-width=".365"/><g stroke-width=".765"><path d="m139.87 231.17v-11.024" marker-end="url(#marker126054)" stroke="#ff004a"/><path d="m139.5 177.62v12.464" marker-start="url(#marker126054)" stroke="#0a59b0" stroke-opacity=".70588"/><path d="m150.52 203.03h17.486v-37.107h39.273" marker-end="url(#marker126054)" stroke="#f60"/></g></g><g stroke="#000"><g><g stroke-width=".365"><path d="m225.06 171.36-16.966 11.495" marker-end="url(#marker126054)"/><path d="m224.75 171.44 16.966 11.495" marker-end="url(#marker126054-3)"/><path d="m226.17 223.63v13.412" marker-end="url(#marker126054)"/></g><rect x="231.56" y="188.23" width="20.998" height="4.9368" stroke-miterlimit="110.7" stroke-width=".94022" style="paint-order:normal"/></g><rect x="231.33" y="194.72" width="21.406" height="5.0044" stroke-dasharray="1.30117, 0.650587" stroke-miterlimit="110.7" stroke-width=".65059" style="paint-order:normal"/><rect x="231.4" y="201.16" width="21.406" height="5.0044" stroke-dasharray="1.30117, 0.650587" stroke-miterlimit="110.7" stroke-width=".65059" style="paint-order:normal"/></g></g><g transform="matrix(1.9999 0 0 1.9999 56.604 185.04)"><title>user</title><path d="m8 7c1.104 0 2-0.896 2-2s-0.896-2-2-2-2 0.896-2 2 0.896 2 2 2zm1 1h-2c-1.656 0-3 1.343-3 3v2h8v-2c0-1.657-1.344-3-3-3z"/></g><path d="m80.878 200.43h22.51" fill="none" marker-end="url(#marker125583)" stroke="#000" stroke-width=".365"/></g><style type="text/css">
    *         {stroke: none;}
    #suitcase {fill: black;}
    .body     {}
    .sides    {}
    #left     {}
    #middle   {}
    #right    {}
    #handle   {}
  </style></svg>
