<?xml version="1.0" encoding="UTF-8" standalone="no"?>
<svg
   xmlns:dc="http://purl.org/dc/elements/1.1/"
   xmlns:cc="http://creativecommons.org/ns#"
   xmlns:rdf="http://www.w3.org/1999/02/22-rdf-syntax-ns#"
   xmlns:svg="http://www.w3.org/2000/svg"
   xmlns="http://www.w3.org/2000/svg"
   xmlns:xlink="http://www.w3.org/1999/xlink"
   xmlns:sodipodi="http://sodipodi.sourceforge.net/DTD/sodipodi-0.dtd"
   xmlns:inkscape="http://www.inkscape.org/namespaces/inkscape"
   width="523.48102mm"
   height="341.73511mm"
   viewBox="0 0 523.48102 341.7351"
   version="1.1"
   id="svg8"
   inkscape:version="1.0.2 (e86c870879, 2021-01-15)"
   sodipodi:docname="parisjug-live-streaming.svg"
   inkscape:export-filename="/home/sunix/parisjug-live-streaming.png"
   inkscape:export-xdpi="96"
   inkscape:export-ydpi="96">
  <defs
     id="defs2">
    <marker
       style="overflow:visible"
       id="marker156022"
       refX="0"
       refY="0"
       orient="auto"
       inkscape:stockid="Arrow1Lend"
       inkscape:isstock="true">
      <path
         transform="matrix(-0.8,0,0,-0.8,-10,0)"
         style="fill:#000000;fill-opacity:1;fill-rule:evenodd;stroke:#000000;stroke-width:1pt;stroke-opacity:1"
         d="M 0,0 5,-5 -12.5,0 5,5 Z"
         id="path156020" />
    </marker>
    <marker
       style="overflow:visible"
       id="marker155952"
       refX="0"
       refY="0"
       orient="auto"
       inkscape:stockid="Arrow1Lend"
       inkscape:isstock="true"
       inkscape:collect="always">
      <path
         transform="matrix(-0.8,0,0,-0.8,-10,0)"
         style="fill:#000000;fill-opacity:1;fill-rule:evenodd;stroke:#000000;stroke-width:1pt;stroke-opacity:1"
         d="M 0,0 5,-5 -12.5,0 5,5 Z"
         id="path155950" />
    </marker>
    <marker
       style="overflow:visible"
       id="Arrow1Lend"
       refX="0"
       refY="0"
       orient="auto"
       inkscape:stockid="Arrow1Lend"
       inkscape:isstock="true"
       inkscape:collect="always">
      <path
         transform="matrix(-0.8,0,0,-0.8,-10,0)"
         style="fill:#000000;fill-opacity:1;fill-rule:evenodd;stroke:#000000;stroke-width:1pt;stroke-opacity:1"
         d="M 0,0 5,-5 -12.5,0 5,5 Z"
         id="path155533" />
    </marker>
    <marker
       style="overflow:visible"
       id="marker155874"
       refX="0"
       refY="0"
       orient="auto"
       inkscape:stockid="Arrow1Lstart"
       inkscape:isstock="true">
      <path
         transform="matrix(0.8,0,0,0.8,10,0)"
         style="fill:#000000;fill-opacity:1;fill-rule:evenodd;stroke:#000000;stroke-width:1pt;stroke-opacity:1"
         d="M 0,0 5,-5 -12.5,0 5,5 Z"
         id="path155872" />
    </marker>
    <marker
       style="overflow:visible"
       id="marker155840"
       refX="0"
       refY="0"
       orient="auto"
       inkscape:stockid="Arrow1Lstart"
       inkscape:isstock="true"
       inkscape:collect="always">
      <path
         transform="matrix(0.8,0,0,0.8,10,0)"
         style="fill:#000000;fill-opacity:1;fill-rule:evenodd;stroke:#000000;stroke-width:1pt;stroke-opacity:1"
         d="M 0,0 5,-5 -12.5,0 5,5 Z"
         id="path155838" />
    </marker>
    <marker
       style="overflow:visible"
       id="Arrow1Lstart"
       refX="0"
       refY="0"
       orient="auto"
       inkscape:stockid="Arrow1Lstart"
       inkscape:isstock="true"
       inkscape:collect="always">
      <path
         transform="matrix(0.8,0,0,0.8,10,0)"
         style="fill:#000000;fill-opacity:1;fill-rule:evenodd;stroke:#000000;stroke-width:1pt;stroke-opacity:1"
         d="M 0,0 5,-5 -12.5,0 5,5 Z"
         id="path155530" />
    </marker>
    <symbol
       id="laptop">
      <title
         id="laptop-title">Laptop</title>
      <path
         d="M 135.46667,16.933333 V 84.666667 H 33.866667 V 16.933333 H 135.46667 M 139.7,0 H 29.633333 c -7.011458,0 -12.7,5.6885417 -12.7,12.7 v 76.2 c 0,7.011458 5.688542,12.7 12.7,12.7 H 139.7 c 7.01146,0 12.7,-5.688542 12.7,-12.7 V 12.7 C 152.4,5.6885417 146.71146,0 139.7,0 Z m 26.45833,110.06667 h -63.10312 c -0.79375,0 -1.45521,0.55562 -1.56104,1.34937 -0.635,4.02167 -4.127503,7.11729 -8.360837,7.11729 H 76.2 c -4.233333,0 -7.725833,-3.09562 -8.360833,-7.11729 -0.132292,-0.76729 -0.79375,-1.34937 -1.561042,-1.34937 H 3.175 c -1.74625,0 -3.175,1.42875 -3.175,3.175 v 9.525 c 0,7.01145 5.6885417,12.7 12.7,12.7 h 143.93333 c 7.01146,0 12.7,-5.68855 12.7,-12.7 v -9.525 c 0,-1.74625 -1.42875,-3.175 -3.175,-3.175 z"
         id="path69668"
         style="stroke-width:0.264583" />
    </symbol>
    <symbol
       id="icon-laptop">
      <title
         id="title79607">laptop</title>
      <path
         d="M 7.9375,1.7578917 C 7.9375,1.6652875 7.8697667,1.5875 7.77875,1.5875 H 0.69797083 c -0.0910167,0 -0.16853958,0.075935 -0.16853958,0.1703917 v 4.327525 H 7.9377646 V 1.7578917 Z M 7.4083333,5.55625 h -6.35 V 2.1166667 h 6.35 z"
         id="path79609"
         style="stroke-width:0.264583" />
      <path
         d="m 0,6.4277875 c 1.1609917,0.3291417 1.9147896,0.4513792 4.2333333,0.4513792 2.3185438,0 3.0726063,-0.12065 4.2333334,-0.4513792 V 6.35 H 0 Z"
         id="path79611"
         style="stroke-width:0.264583" />
    </symbol>
    <symbol
       id="user">
      <title
         id="title3333">user</title>
      <path
         d="m 2.1166667,1.8520833 c 0.2921,0 0.5291666,-0.2370666 0.5291666,-0.5291666 0,-0.2921 -0.2370666,-0.5291667 -0.5291666,-0.5291667 -0.2921,0 -0.5291667,0.2370667 -0.5291667,0.5291667 0,0.2921 0.2370667,0.5291666 0.5291667,0.5291666 z M 2.38125,2.1166667 H 1.8520833 c -0.43815,0 -0.79375,0.3553354 -0.79375,0.79375 V 3.4395833 H 3.175 V 2.9104167 c 0,-0.4384146 -0.3556,-0.79375 -0.79375,-0.79375 z"
         id="path3335"
         style="stroke-width:0.264583" />
    </symbol>
    <symbol
       id="icon-fork">
      <title
         id="title87930">fork</title>
      <path
         d="m 169.33333,0 v 32.808333 c 0,13.5636 -5.29166,26.322867 -14.85053,35.881734 L 58.674,163.97393 c -15.146867,15.113 -23.486533,34.95887 -24.4094,56.1594 H 0 l 50.8,50.8 50.8,-50.8 H 68.0974 c 0.889,-12.17506 5.7912,-23.47806 14.486467,-32.21566 L 178.39267,92.667667 C 194.40313,76.665667 203.2,55.431267 203.2,32.808333 V 0 Z m 33.46874,220.13333 c -0.92287,-21.20053 -9.2964,-41.0464 -24.44327,-56.22713 l -18.88067,-18.75367 -24.01146,23.88447 18.98226,18.88067 c 8.72914,8.69526 13.62287,20.0406 14.52034,32.21566 h -33.5026 l 50.8,50.8 50.8,-50.8 z"
         id="path87932"
         style="stroke-width:0.264583" />
    </symbol>
    <symbol
       id="icon-display-projector-symbolic">
      <title
         id="title75953">display-projector-symbolic</title>
      <path
         d="M 0.52810833,2.6458333 C 0.23547917,2.6458333 0,2.9225875 0,3.2578146 V 5.6721375 C 0,6.0071 0.21986875,6.3502646 0.51249792,6.3502646 H 1.0416646 c 0,0.3349625 0.2510896,0.5291666 0.5437187,0.5291666 h 0.52705 c 0.2926292,0 0.5167313,-0.1942041 0.5167313,-0.5291666 h 3.16865 c 0,0.3349625 0.2468562,0.5291666 0.5394854,0.5291666 h 0.5259917 c 0.2926291,0 0.5281083,-0.1942041 0.5281083,-0.5291666 h 0.530225 c 0.2926292,0 0.5281083,-0.3429 0.5281083,-0.6781271 V 3.2578146 c 0,-0.3349625 -0.2354791,-0.6119813 -0.5281083,-0.6119813 z M 0.7921625,3.2766 c 0.14578542,0 0.2640542,0.4905375 0.2640542,1.2213167 0,0.7307791 -0.11826878,1.184275 -0.2640542,1.184275 -0.14578542,0 -0.26405417,-0.4537605 -0.26405417,-1.184275 0,-0.7305146 0.11826875,-1.2213167 0.26405417,-1.2213167 z m 1.0562167,0 c 0.1457854,0 0.2640541,0.5924021 0.2640541,1.3229167 0,0.7305145 -0.1367896,1.0800291 -0.282575,1.0800291 -0.1457854,0 -0.2455333,-0.45085 -0.2455333,-1.1813646 0,-0.7305145 0.1182687,-1.2213166 0.2640542,-1.2213166 z m 1.0379604,0 c 0.1457854,0 0.282575,0.4908021 0.282575,1.2213167 0,0.7305145 -0.1182688,1.1813645 -0.2640542,1.1813645 -0.1457854,0 -0.2640542,-0.45085 -0.2640542,-1.1813645 0,-0.7305146 0.099748,-1.2213167 0.2455334,-1.2213167 z M 6.6016187,3.175 c 0.7291917,0 1.3202709,0.5924021 1.3202709,1.3229167 0,0.7305145 -0.5910792,1.3229166 -1.3202709,1.3229166 -0.7291916,0 -1.3202708,-0.5924021 -1.3202708,-1.3229166 C 5.2813479,3.7674021 5.8724271,3.175 6.6016187,3.175 Z"
         id="path75955"
         style="stroke-width:0.264583" />
      <path
         d="m 7.3916646,4.4979167 c 0,0.4384145 -0.3553354,0.79375 -0.79375,0.79375 -0.4384146,0 -0.79375,-0.3553355 -0.79375,-0.79375 v 0 c 0,-0.4384146 0.3553354,-0.79375 0.79375,-0.79375 0.4384146,0 0.79375,0.3553354 0.79375,0.79375 z"
         id="path75957"
         style="stroke-width:0.264583" />
    </symbol>
    <symbol
       id="usb"
       viewBox="0 0 10000 10000">
      <title
         id="title74063">usb</title>
      <path
         d="m 605.36667,212.98958 c 2.64583,1.32292 4.23333,4.23334 4.23333,7.14375 0,2.91042 -1.5875,5.82084 -4.23333,7.14375 l -84.66667,50.8 c -1.32292,0.79375 -2.64583,1.32292 -4.23333,1.32292 -1.32292,0 -2.91042,-0.26458 -4.23334,-1.05833 C 509.5875,276.75417 508,274.10833 508,270.93333 V 237.06667 H 280.9875 c 8.46667,13.22916 15.61042,28.83958 21.96042,43.65625 12.7,28.575 25.66458,57.94375 44.18541,57.94375 h 25.4 v -25.4 c 0,-4.7625 3.70417,-8.46667 8.46667,-8.46667 h 84.66667 c 4.7625,0 8.46666,3.70417 8.46666,8.46667 v 84.66666 c 0,4.7625 -3.70416,8.46667 -8.46666,8.46667 H 381 c -4.7625,0 -8.46667,-3.70417 -8.46667,-8.46667 v -25.4 h -25.4 c -40.48125,0 -58.7375,-41.53958 -75.14166,-78.05208 -12.43542,-28.31042 -25.4,-57.41458 -43.39167,-57.41458 h -95.25 c -7.67292,29.10416 -34.13125,50.8 -65.616667,50.8 C 30.427083,287.86667 0,257.43958 0,220.13333 0,182.82708 30.427083,152.4 67.733333,152.4 c 31.485417,0 57.943747,21.69583 65.616667,50.8 h 27.51667 c 17.99166,0 30.95625,-29.10417 43.39166,-57.41458 C 220.6625,109.27292 238.91875,67.733333 279.4,67.733333 h 28.31042 C 314.85417,47.889583 333.375,33.866667 355.6,33.866667 c 28.04583,0 50.8,22.754166 50.8,50.8 0,28.045833 -22.75417,50.800003 -50.8,50.800003 -22.225,0 -40.74583,-14.02292 -47.88958,-33.86667 H 279.4 c -18.52083,0 -31.48542,29.36875 -44.18542,57.94375 -6.35,14.81667 -13.49375,30.42708 -21.96041,43.65625 H 508 v -33.86667 c 0,-3.175 1.5875,-5.82083 4.23333,-7.40833 2.64584,-1.5875 6.08542,-1.32292 8.46667,0.26458 z"
         id="path74065"
         style="stroke-width:0.264583" />
    </symbol>
    <symbol
       id="icon-audio-input-microphone-symbolic">
      <title
         id="title76011">audio-input-microphone-symbolic</title>
      <path
         d="m 1.8520833,2.6458333 c -0.14605,0 -0.2645833,0.1185334 -0.2645833,0.2645834 v 1.5710958 c 0,1.0416646 0.6656917,1.9179646 1.5875,2.2489583 V 7.4085979 H 2.1166667 C 1.8176875,7.4085979 1.5875,7.6678896 1.5875,7.9377646 V 8.4669312 H 6.35 V 7.9377646 C 6.35,7.6284667 6.0978521,7.4085979 5.8208333,7.4085979 H 4.7625 V 6.7304708 C 5.6843083,6.3994771 6.35,5.5231771 6.35,4.4815125 V 2.9104167 c 0,-0.14605 -0.1185333,-0.2645834 -0.2645833,-0.2645834 -0.14605,0 -0.2645834,0.1185334 -0.2645834,0.2645834 0,0.036513 0.00317,0.067469 0.016404,0.099219 v 1.4718771 c 0,1.0392833 -0.8355542,1.8687521 -1.8687521,1.8687521 -1.0331979,0 -1.8520833,-0.8292042 -1.8520833,-1.8687521 V 2.9104167 c 0,-0.14605 -0.1185333,-0.2645834 -0.2645833,-0.2645834 z M 3.96875,0.5222875 c 0.7328958,0 1.3229167,0.5900208 1.3229167,1.3229167 v 2.6527125 c 0,0.7328958 -0.5900209,1.3229166 -1.3229167,1.3229166 -0.7328958,0 -1.3229167,-0.5900208 -1.3229167,-1.3229166 V 1.8452042 c 0,-0.7328959 0.5900209,-1.3229167 1.3229167,-1.3229167 z"
         id="path76013"
         style="stroke-width:0.264583" />
    </symbol>
    <symbol
       id="icon-ios-videocam">
      <title
         id="title79714">ios-videocam</title>
      <path
         d="M 5.0220562,2.1166667 H 1.3673667 c -0.3108855,0 -0.59028545,0.2330979 -0.59028545,0.5408083 V 5.7647417 C 0.77708125,6.0724521 1.0564812,6.35 1.3673667,6.35 h 3.6546895 c 0.3108855,0 0.550598,-0.2778125 0.550598,-0.5852583 V 2.657475 c 0,-0.3074458 -0.2397125,-0.5408083 -0.550598,-0.5408083 z"
         id="path79716"
         style="stroke-width:0.264583" />
      <path
         d="m 6.0690125,3.5223979 v 1.4155208 l 1.6205729,0.8829146 v -3.175 z"
         id="path79718"
         style="stroke-width:0.264583" />
    </symbol>
    <symbol
       id="icon-ios-people">
      <title
         id="title80313">ios-people</title>
      <path
         d="m 5.7745312,5.5364062 c 0.1867959,0.064558 -0.1852083,-0.064558 0,0 z"
         id="path80315"
         style="stroke-width:0.264583" />
      <path
         d="M 5.7745312,5.5364062 C 5.5512229,5.4586187 5.3099229,5.4535917 5.0866146,5.3760687 5.0188812,5.35305 4.8850021,5.3247396 4.8566917,5.2469521 c -0.026458,-0.0762 -0.026458,-0.1653646 -0.031485,-0.2447396 -0.00318,-0.062971 -0.00503,-0.1256771 -0.00503,-0.1883833 0,-0.041275 0.1058333,-0.1291167 0.1291166,-0.1669521 C 5.0384604,4.4979167 5.0469271,4.2978917 5.0633312,4.1293521 5.2072646,4.1690396 5.2255208,3.9028687 5.2501271,3.8219062 5.2683833,3.76555 5.3792437,3.3787292 5.207,3.4316458 5.248275,3.3588854 5.2649437,3.2694562 5.2763208,3.1884937 5.3093937,2.9768271 5.3226229,2.7453167 5.2580646,2.5386771 5.1241854,2.1087292 4.7122292,1.8674292 4.2775187,1.8539354 3.8359292,1.8391187 3.3927521,2.0507854 3.2273875,2.4788812 c -0.079375,0.2082271 -0.07276,0.434975 -0.046302,0.6532563 0.011642,0.099219 0.028046,0.2100792 0.077787,0.2992437 -0.1603375,-0.04789 -0.074348,0.2926292 -0.056356,0.3521605 0.026458,0.084402 0.049742,0.3870854 0.200025,0.3455458 0.013229,0.1338792 0.028046,0.2711979 0.064558,0.4019021 0.024871,0.087577 0.075935,0.1621896 0.1354667,0.2299229 0.029898,0.033073 0.044715,0.036248 0.042863,0.079375 -0.00159,0.1291167 0.00159,0.2677583 -0.031485,0.3937 C 3.5808708,5.3599292 3.3046458,5.4125812 3.1937854,5.4356 2.8961292,5.4967187 2.6217563,5.5247646 2.3735771,5.7102375 2.0841229,5.9234917 1.9338396,6.2560729 1.9338396,6.6148479 c 1.3774208,0 2.7551062,0 4.1325271,0 0.1553104,0 0.3092979,0 0.4646083,0 0,-0.4878917 -0.2944813,-0.9178396 -0.7575021,-1.0781771 z"
         id="path80317"
         style="stroke-width:0.264583" />
      <path
         d="m 2.3696083,5.3329417 c 0.00979,-0.00503 0.019844,-0.010054 0.026458,-0.013229 -0.00503,0.00159 -0.00979,0.00503 -0.013229,0.00661 -0.00503,0.00159 -0.0082,0.00317 -0.013229,0.00661 z"
         id="path80319"
         style="stroke-width:0.264583" />
      <path
         d="m 2.3696083,5.3329417 c -0.056356,0.028046 -0.1240896,0.062971 0.013229,-0.00661 0.049742,-0.024871 0.039687,-0.019844 0.013229,-0.00661 0.1124479,-0.052917 0.2330979,-0.066146 0.3540125,-0.077787 0.046302,-0.00503 0.067733,-0.036248 0.033073,-0.080963 C 2.7170062,5.0765604 2.4886708,5.0601562 2.3928917,5.0220562 2.3333604,4.9990375 2.3169563,4.9773417 2.3119292,4.9111958 2.3103392,4.8812978 2.2936732,4.7490062 2.3169592,4.727575 2.3336282,4.710906 2.4376092,4.717521 2.4608925,4.714346 2.5550845,4.702704 2.6511279,4.682861 2.7402925,4.6482 2.7783925,4.633383 2.8146405,4.615127 2.8477133,4.592108 2.8873979,4.5622104 2.8178125,4.4897146 2.7998208,4.4497625 2.7434646,4.3256729 2.7188583,4.1902062 2.7103917,4.054475 2.6937229,3.7883042 2.7352625,3.5202812 2.6855208,3.2556979 2.6111729,2.8506208 2.2984354,2.6471563 1.8999729,2.6471563 1.6536458,2.6471563 1.4104938,2.7315583 1.273175,2.9464 1.1210396,3.1829375 1.1292417,3.4771542 1.1374438,3.7467646 c 0.00503,0.1537229 0.011642,0.3092979 -0.00979,0.4630208 -0.00979,0.066146 -0.024871,0.1307042 -0.04789,0.1934104 -0.018256,0.04789 -0.11086043,0.1669521 -0.074348,0.191823 0.1373187,0.097631 0.3688291,0.1307041 0.5341937,0.1174749 0.00503,0.080963 0.019844,0.1852084 -0.00979,0.2614084 C 1.4835188,5.0929646 1.1379729,5.12445 1.0337271,5.1591104 0.74427292,5.2551542 0.52943125,5.4898396 0.52943125,5.8205687 c 0.30268333,0 0.60351455,0 0.90619795,0 0.1357312,0 0.2711979,0 0.4085166,0 0.021431,0 0.1042459,-0.1537229 0.1272646,-0.1785937 C 2.0838583,5.5178854 2.2211771,5.4104646 2.3698729,5.3326771 Z"
         id="path80321"
         style="stroke-width:0.264583" />
      <path
         d="M 7.4297646,5.1577875 C 7.2958854,5.1146604 7.0379167,5.1016958 6.9418729,4.9858083 6.8939833,4.9278646 6.9204417,4.7807562 6.9252042,4.7111708 c 0.07276,0.00661 0.1521354,-0.00503 0.2264833,-0.014817 0.067733,-0.010054 0.1338792,-0.023019 0.1984375,-0.046302 0.029898,-0.011642 0.059531,-0.023019 0.087577,-0.039688 0.064558,-0.0381 0.03466,-0.044715 0.00159,-0.1008063 C 7.2591083,4.206875 7.3400708,3.8232292 7.3318687,3.4909125 7.3252542,3.2146875 7.2524937,2.9120042 7.0011396,2.7566937 6.7746562,2.6162 6.4389,2.6111729 6.1957479,2.7103917 5.4946021,2.9916437 5.9081458,3.9208604 5.6681687,4.4532021 c -0.041275,0.089165 -0.1008062,0.12065 0.00318,0.1735666 0.057944,0.029898 0.12065,0.049742 0.1836209,0.064558 0.096044,0.023019 0.1952625,0.036248 0.2944812,0.039688 0.016669,0 0.00503,0.2084916 0,0.2299229 C 6.1311896,5.0419 5.9541833,5.0651833 5.8880375,5.083175 5.8203045,5.101431 5.7078562,5.106194 5.6747833,5.177367 c -0.049742,0.1058333 0.1637771,0.079375 0.2166938,0.089164 0.1703916,0.031485 0.320675,0.1256771 0.4529666,0.233098 0.099219,0.080963 0.233098,0.1902354 0.2696105,0.322527 0.4415895,0 0.8847666,0 1.3260916,0 C 7.9369708,5.4898396 7.7202771,5.2533021 7.4292354,5.1575229 Z"
         id="path80323"
         style="stroke-width:0.264583" />
    </symbol>
    <symbol
       id="wifi">
      <title
         id="wifi-title">WiFi</title>
      <path
         d="M 101.6,110.06667 C 101.6,119.41863 94.018629,127 84.666667,127 c -9.351963,0 -16.933334,-7.58137 -16.933334,-16.93333 0,-9.35197 7.581371,-16.933337 16.933334,-16.933337 9.351962,0 16.933333,7.581367 16.933333,16.933337 z m 36.15769,-32.925547 c 1.71053,-1.710531 1.65233,-4.515115 -0.14922,-6.129602 -30.10773,-26.983531 -75.810005,-26.95284 -105.883605,0 -1.801548,1.614487 -1.859757,4.419071 -0.149225,6.129602 l 8.99742,8.997421 c 1.568186,1.568185 4.091517,1.672166 5.759715,0.210608 21.928667,-19.211131 54.788325,-19.168269 76.667785,0 1.6682,1.461558 4.19153,1.357842 5.75971,-0.210608 z m 29.66244,-30.087888 c 1.68937,-1.689364 1.65471,-4.449233 -0.0926,-6.078273 -46.50529,-43.3546245 -118.833374,-43.3387495 -165.3214592,0 -1.7473083,1.62904 -1.78196872,4.389173 -0.092604,6.078273 l 8.9868372,8.986838 c 1.612636,1.612635 4.204494,1.648619 5.8801,0.101335 38.301877,-35.366325 97.460856,-35.375321 135.772526,0 1.67561,1.547284 4.26746,1.5113 5.8801,-0.101335 z"
         id="path70544"
         style="stroke-width:0.264583" />
    </symbol>
    <symbol
       id="mobile"
       viewBox="0 0 10000 10000">
      <title
         id="title72839">mobile</title>
      <path
         d="m 122.76667,372.53333 c 0,-11.64166 -9.525,-21.16666 -21.16667,-21.16666 -11.641667,0 -21.166667,9.525 -21.166667,21.16666 0,11.64167 9.525,21.16667 21.166667,21.16667 11.64167,0 21.16667,-9.525 21.16667,-21.16667 z M 177.8,330.2 V 143.93333 c 0,-4.49791 -3.96875,-8.46666 -8.46667,-8.46666 H 33.866667 c -4.497917,0 -8.466667,3.96875 -8.466667,8.46666 V 330.2 c 0,4.49792 3.96875,8.46667 8.466667,8.46667 H 169.33333 c 4.49792,0 8.46667,-3.96875 8.46667,-8.46667 z M 127,105.83333 C 127,103.45208 125.14792,101.6 122.76667,101.6 H 80.433333 c -2.38125,0 -4.233333,1.85208 -4.233333,4.23333 0,2.38125 1.852083,4.23334 4.233333,4.23334 h 42.333337 c 2.38125,0 4.23333,-1.85209 4.23333,-4.23334 z M 203.2,101.6 V 372.53333 C 203.2,391.05417 187.85417,406.4 169.33333,406.4 H 33.866667 C 15.345833,406.4 0,391.05417 0,372.53333 V 101.6 C 0,83.079167 15.345833,67.733333 33.866667,67.733333 H 169.33333 C 187.85417,67.733333 203.2,83.079167 203.2,101.6 Z"
         id="path72841"
         style="stroke-width:0.264583" />
    </symbol>
    <symbol
       id="mixcloud">
      <title
         id="mixcloud-title">Mixcloud</title>
      <path
         d="M 112.2971,58.136631 C 110.09947,35.646519 91.052385,17.991667 67.976485,17.991667 c -19.120379,0 -36.0426,12.307358 -42.122989,30.182079 -14.431698,2.124339 -25.56668767,14.504987 -25.56668767,29.522737 0,16.483013 13.40590867,29.888917 29.96221067,29.888917 h 76.627041 c 13.84538,0 25.12721,-11.208275 25.12721,-25.054185 0,-11.940911 -8.49789,-21.977086 -19.70617,-24.394584 z M 106.87606,96.37686 H 30.249019 c -10.329334,0 -18.753932,-8.351308 -18.753932,-18.680641 0,-10.329334 8.424598,-18.680642 18.753932,-18.680642 4.98131,0 9.669991,1.97776 13.186304,5.494338 C 48.7172,69.791792 56.699679,61.804021 51.420448,56.52479 47.537687,52.715319 42.775981,50.078217 37.648092,48.759533 42.92256,37.038492 54.790446,29.199946 67.97675,29.199946 c 18.387483,0 33.33194,14.94446 33.33194,33.258654 0,3.589867 -0.58605,7.105915 -1.685128,10.475912 -2.366168,7.28054 8.501858,10.302611 10.622228,3.516313 0.73263,-2.197629 1.31868,-4.468548 1.68513,-6.739467 5.12789,1.978025 8.86407,6.959336 8.86407,12.819857 0,7.618677 -6.22697,13.845645 -13.91893,13.845645 z M 169.0714,82.531215 c 0,11.648016 -3.37,22.856295 -9.81658,32.452995 -1.09881,1.61184 -2.85697,2.49079 -4.68841,2.49079 -4.31721,0 -7.17735,-4.98105 -4.61513,-8.71776 5.12789,-7.76525 7.91184,-16.849192 7.91184,-26.226025 0,-9.376834 -2.78368,-18.460773 -7.91184,-26.15274 -4.14205,-6.040702 5.1226,-12.498917 9.30354,-6.226704 6.44684,9.523148 9.81658,20.731691 9.81658,32.379444 z m -18.75367,0 c 0,8.351572 -2.4175,16.409722 -7.10592,23.369325 -1.09881,1.61157 -2.85697,2.41723 -4.68841,2.41723 -4.5511,0 -7.14957,-5.02153 -4.61513,-8.717491 3.44302,-5.0546 5.20118,-10.915385 5.20118,-17.069064 0,-6.08039 -1.75816,-12.0142 -5.20118,-17.0688 -4.1701,-6.081713 5.0292,-12.460552 9.30354,-6.226969 4.68816,6.886046 7.10592,14.94446 7.10592,23.295769 z"
         id="path67678"
         style="stroke-width:0.264583" />
    </symbol>
  </defs>
  <sodipodi:namedview
     id="base"
     pagecolor="#ffffff"
     bordercolor="#666666"
     borderopacity="1.0"
     inkscape:pageopacity="0.0"
     inkscape:pageshadow="2"
     inkscape:zoom="0.35"
     inkscape:cx="1088.3065"
     inkscape:cy="765.31354"
     inkscape:document-units="mm"
     inkscape:current-layer="layer1"
     inkscape:document-rotation="0"
     showgrid="false"
     fit-margin-top="0"
     fit-margin-left="0"
     fit-margin-right="0"
     fit-margin-bottom="0"
     inkscape:window-width="1530"
     inkscape:window-height="1020"
     inkscape:window-x="2009"
     inkscape:window-y="490"
     inkscape:window-maximized="0" />
  <metadata
     id="metadata5">
    <rdf:RDF>
      <cc:Work
         rdf:about="">
        <dc:format>image/svg+xml</dc:format>
        <dc:type
           rdf:resource="http://purl.org/dc/dcmitype/StillImage" />
        <dc:title></dc:title>
      </cc:Work>
    </rdf:RDF>
  </metadata>
  <g
     inkscape:label="Layer 1"
     inkscape:groupmode="layer"
     id="layer1"
     transform="translate(221.68537,-148.78067)">
    <use
       xlink:href="#icon-laptop"
       style="fill:#000000;stroke:none"
       id="use99416"
       x="0"
       y="0"
       width="100%"
       height="100%"
       transform="matrix(11.247346,0,0,11.247346,-221.68537,153.49102)" />
    <text
       xml:space="preserve"
       style="font-style:normal;font-weight:normal;font-size:10.5833px;line-height:1.25;font-family:sans-serif;fill:#000000;fill-opacity:1;stroke:none;stroke-width:0.264583"
       x="-116.72761"
       y="232.13618"
       id="text99458"><tspan
         sodipodi:role="line"
         id="tspan99456"
         x="-116.72761"
         y="232.13618"
         style="stroke-width:0.264583">Speaker</tspan></text>
    <use
       xlink:href="#user"
       style="fill:#000000;stroke:none"
       id="use99641"
       x="0"
       y="0"
       width="100%"
       height="100%"
       transform="matrix(18.967703,0,0,18.967703,-136.30344,154.76883)" />
    <use
       xlink:href="#icon-fork"
       style="fill:#000000;stroke:none"
       id="use99686"
       x="0"
       y="0"
       width="100%"
       height="100%"
       transform="matrix(0.11122129,0,0,0.11122129,-43.071109,263.52023)" />
    <text
       xml:space="preserve"
       style="font-style:normal;font-weight:normal;font-size:10.5833px;line-height:1.25;font-family:sans-serif;fill:#000000;fill-opacity:1;stroke:none;stroke-width:0.264583"
       x="-62.909039"
       y="309.84677"
       id="text99458-6"><tspan
         sodipodi:role="line"
         id="tspan99456-4"
         x="-62.909039"
         y="309.84677"
         style="stroke-width:0.264583">Spitter HDMI</tspan></text>
    <path
       style="fill:none;stroke:#000000;stroke-width:1;stroke-linecap:butt;stroke-linejoin:miter;stroke-miterlimit:4;stroke-dasharray:none;stroke-opacity:1;marker-end:url(#marker156022)"
       d="m -180.021,284.36607 130.220816,-0.16788"
       id="path99765" />
    <path
       style="fill:none;stroke:#000000;stroke-width:1;stroke-linecap:butt;stroke-linejoin:miter;stroke-miterlimit:4;stroke-dasharray:none;stroke-opacity:1"
       d="m -180.04524,284.36781 -0.16862,-47.58354"
       id="path99765-5" />
    <use
       xlink:href="#icon-display-projector-symbolic"
       style="fill:#000000;stroke:none"
       id="use99810"
       x="0"
       y="0"
       width="100%"
       height="100%"
       transform="matrix(8.2811815,0,0,8.2811815,140.53932,140.49053)" />
    <path
       style="fill:none;stroke:#000000;stroke-width:1;stroke-linecap:butt;stroke-linejoin:miter;stroke-miterlimit:4;stroke-dasharray:none;stroke-opacity:1"
       d="m -28.130282,261.9507 -0.165634,-81.35254"
       id="path99765-5-0" />
    <path
       style="fill:none;stroke:#000000;stroke-width:1;stroke-linecap:butt;stroke-linejoin:miter;stroke-miterlimit:4;stroke-dasharray:none;stroke-opacity:1;marker-end:url(#marker155952)"
       d="M -28.924161,179.97408 129.61221,179.8078"
       id="path99765-4" />
    <text
       xml:space="preserve"
       style="font-style:normal;font-weight:normal;font-size:10.5833px;line-height:1.25;font-family:sans-serif;fill:#000000;fill-opacity:1;stroke:none;stroke-width:0.264583"
       x="-143.40906"
       y="298.40469"
       id="text99458-6-8"><tspan
         sodipodi:role="line"
         id="tspan99456-4-7"
         x="-143.40906"
         y="298.40469"
         style="stroke-width:0.264583">HDMI</tspan></text>
    <text
       xml:space="preserve"
       style="font-style:normal;font-weight:normal;font-size:10.5833px;line-height:1.25;font-family:sans-serif;fill:#000000;fill-opacity:1;stroke:none;stroke-width:0.264583"
       x="33.440323"
       y="193.63562"
       id="text99458-6-1"><tspan
         sodipodi:role="line"
         id="tspan99456-4-72"
         x="33.440323"
         y="193.63562"
         style="stroke-width:0.264583">HDMI</tspan></text>
    <use
       xlink:href="#icon-laptop"
       style="fill:#000000;stroke:none"
       id="use99416-7"
       x="0"
       y="0"
       width="100%"
       height="100%"
       transform="matrix(11.247346,0,0,11.247346,143.6394,295.25543)" />
    <text
       xml:space="preserve"
       style="font-style:normal;font-weight:normal;font-size:10.5833px;line-height:1.25;font-family:sans-serif;fill:#000000;fill-opacity:1;stroke:none;stroke-width:0.264583"
       x="256.77194"
       y="374.3927"
       id="text99458-2"><tspan
         sodipodi:role="line"
         id="tspan99456-2"
         x="256.77194"
         y="374.3927"
         style="stroke-width:0.264583">Crew</tspan></text>
    <use
       xlink:href="#user"
       style="fill:#000000;stroke:none"
       id="use99641-6"
       x="0"
       y="0"
       width="100%"
       height="100%"
       transform="matrix(18.967703,0,0,18.967703,229.02133,296.53324)" />
    <text
       xml:space="preserve"
       style="font-style:normal;font-weight:normal;font-size:10.5833px;line-height:1.25;font-family:sans-serif;fill:#000000;fill-opacity:1;stroke:none;stroke-width:0.264583"
       x="179.34433"
       y="341.18887"
       id="text99458-6-1-1"><tspan
         sodipodi:role="line"
         id="tspan99456-4-72-0"
         x="179.34433"
         y="341.18887"
         style="stroke-width:0.264583">OBS</tspan></text>
    <use
       xlink:href="#usb"
       style="fill:#000000;stroke:#000000"
       id="use99970-1"
       x="0"
       y="0"
       width="100%"
       height="100%"
       transform="matrix(0.5813254,0,0,0.5813254,141.71889,285.80297)" />
    <use
       xlink:href="#icon-audio-input-microphone-symbolic"
       style="fill:#000000;stroke:none"
       id="use100201"
       x="0"
       y="0"
       width="100%"
       height="100%"
       transform="matrix(2.378478,0,0,2.378478,101.57525,211.59031)" />
    <use
       xlink:href="#icon-ios-videocam"
       style="fill:#000000;stroke:none"
       id="use100416"
       x="0"
       y="0"
       width="100%"
       height="100%"
       transform="matrix(2.5156412,0,0,2.5156412,103.30932,235.99603)" />
    <path
       style="fill:none;stroke:#000000;stroke-width:1;stroke-linecap:butt;stroke-linejoin:miter;stroke-miterlimit:4;stroke-dasharray:none;stroke-opacity:1;marker-end:url(#Arrow1Lend)"
       d="M -29.641176,353.63335 101.20076,353.46569"
       id="path99765-49" />
    <path
       style="fill:none;stroke:#000000;stroke-width:1;stroke-linecap:butt;stroke-linejoin:miter;stroke-miterlimit:4;stroke-dasharray:none;stroke-opacity:1"
       d="m -29.668553,353.63103 -0.169632,-38.22497"
       id="path99765-5-09" />
    <rect
       style="fill:none;stroke:#000000;stroke-width:1;stroke-linejoin:round;stroke-miterlimit:4;stroke-dasharray:none"
       id="rect147923"
       width="39.584248"
       height="26.343885"
       x="104.05515"
       y="340.33221" />
    <rect
       style="fill:none;stroke:#000000;stroke-width:0.641514;stroke-linejoin:round;stroke-miterlimit:4;stroke-dasharray:none"
       id="rect154762"
       width="33.535"
       height="37.155342"
       x="-45.842964"
       y="261.92349" />
    <text
       xml:space="preserve"
       style="font-style:normal;font-weight:normal;font-size:10.5833px;line-height:1.25;font-family:sans-serif;fill:#000000;fill-opacity:1;stroke:none;stroke-width:0.264583"
       x="20.748327"
       y="363.75504"
       id="text99458-6-1-17"><tspan
         sodipodi:role="line"
         id="tspan99456-4-72-7"
         x="20.748327"
         y="363.75504"
         style="stroke-width:0.264583">HDMI</tspan></text>
    <path
       style="fill:none;stroke:#000000;stroke-width:1;stroke-linecap:butt;stroke-linejoin:miter;stroke-miterlimit:4;stroke-dasharray:none;stroke-opacity:1;marker-start:url(#marker155874)"
       d="m 127.20398,246.93437 55.43799,-0.1682"
       id="path99765-4-1" />
    <path
       style="fill:none;stroke:#000000;stroke-width:1;stroke-linecap:butt;stroke-linejoin:miter;stroke-miterlimit:4;stroke-dasharray:none;stroke-opacity:1"
       d="m 182.80991,281.31816 -0.16794,-34.55199"
       id="path99765-5-0-1" />
    <path
       style="fill:none;stroke:#000000;stroke-width:1;stroke-linecap:butt;stroke-linejoin:miter;stroke-miterlimit:4;stroke-dasharray:none;stroke-opacity:1;marker-start:url(#marker155840)"
       d="m 128.22922,224.83309 72.52919,-0.16704"
       id="path99765-4-1-5" />
    <path
       style="fill:none;stroke:#000000;stroke-width:1;stroke-linecap:butt;stroke-linejoin:miter;stroke-miterlimit:4;stroke-dasharray:none;stroke-opacity:1"
       d="m 200.95133,280.93405 -0.15778,-56.2697"
       id="path99765-5-0-1-9" />
    <rect
       style="fill:none;stroke:#000000;stroke-width:1;stroke-linejoin:round;stroke-miterlimit:4;stroke-dasharray:none"
       id="rect154852"
       width="37.566963"
       height="18.073709"
       x="173.01474"
       y="281.13504" />
    <text
       xml:space="preserve"
       style="font-style:normal;font-weight:normal;font-size:6.35px;line-height:1.25;font-family:sans-serif;fill:#000000;fill-opacity:1;stroke:none;stroke-width:0.264583"
       x="190.65163"
       y="394.2139"
       id="text154856"><tspan
         sodipodi:role="line"
         id="tspan154854"
         x="190.65163"
         y="394.2139"
         style="font-size:6.35px;stroke-width:0.264583">ou</tspan></text>
    <text
       xml:space="preserve"
       style="font-style:normal;font-weight:normal;font-size:6.35px;line-height:1.25;font-family:sans-serif;fill:#000000;fill-opacity:1;stroke:none;stroke-width:0.264583"
       x="177.77579"
       y="307.173"
       id="text154856-7"><tspan
         sodipodi:role="line"
         id="tspan154854-7"
         x="177.77579"
         y="307.173"
         style="font-size:6.35px;stroke-width:0.264583">Hub USB</tspan></text>
    <use
       xlink:href="#icon-ios-people"
       style="fill:#000000;stroke:none"
       transform="matrix(9.0823888,0,0,9.0823888,212.28107,131.94911)"
       id="use154942"
       x="0"
       y="0"
       width="100%"
       height="100%" />
    <use
       xlink:href="#wifi"
       style="fill:#000000;stroke:none"
       transform="matrix(0.13996697,0,0,0.13996697,165.27388,381.38791)"
       id="use155118"
       x="0"
       y="0"
       width="100%"
       height="100%" />
    <use
       xlink:href="#mobile"
       style="fill:#000000;stroke:#000000"
       transform="matrix(1.9964117,0,0,1.9964117,21.798281,374.83734)"
       id="use155177"
       x="0"
       y="0"
       width="100%"
       height="100%" />
    <text
       xml:space="preserve"
       style="font-style:normal;font-weight:normal;font-size:6.35px;line-height:1.25;font-family:sans-serif;fill:#000000;fill-opacity:1;stroke:none;stroke-width:0.264583"
       x="96.534233"
       y="374.87198"
       id="text154856-6"><tspan
         sodipodi:role="line"
         id="tspan154854-73"
         x="96.534233"
         y="374.87198"
         style="font-size:6.35px;stroke-width:0.264583">Carte de Capture</tspan></text>
    <use
       xlink:href="#mixcloud"
       style="fill:#000000;stroke:none"
       transform="matrix(0.41685692,0,0,0.41685692,164.01005,431.66278)"
       id="use155448"
       x="0"
       y="0"
       width="100%"
       height="100%" />
    <use
       xlink:href="#icon-ios-people"
       style="fill:#000000;stroke:none"
       transform="matrix(9.0823888,0,0,9.0823888,229.68013,413.20182)"
       id="use154942-6"
       x="0"
       y="0"
       width="100%"
       height="100%" />
    <path
       style="fill:none;stroke:#000000;stroke-width:1;stroke-linecap:butt;stroke-linejoin:miter;stroke-miterlimit:4;stroke-dasharray:none;stroke-opacity:1;marker-start:url(#Arrow1Lstart)"
       d="m 193.81986,433.80884 -0.16794,-34.55199"
       id="path99765-5-0-1-3" />
    <text
       xml:space="preserve"
       style="font-style:normal;font-weight:normal;font-size:10.5833px;line-height:1.25;font-family:sans-serif;fill:#000000;fill-opacity:1;stroke:none;stroke-width:0.264583"
       x="211.19522"
       y="490.36591"
       id="text99458-6-1-17-9"><tspan
         sodipodi:role="line"
         id="tspan99456-4-72-7-4"
         x="211.19522"
         y="490.36591"
         style="stroke-width:0.264583">Twitch</tspan></text>
    <use
       xlink:href="#usb"
       style="fill:#000000;stroke:#000000"
       id="use99970-1-1"
       x="0"
       y="0"
       width="100%"
       height="100%"
       transform="matrix(0.5813254,0,0,0.5813254,124.23158,285.73635)" />
    <use
       xlink:href="#usb"
       style="fill:#000000;stroke:#000000"
       id="use99970-1-2"
       x="0"
       y="0"
       width="100%"
       height="100%"
       transform="matrix(0.5813254,0,0,0.5813254,75.189091,348.51642)" />
  </g>
</svg>
